# Nyxara A2 south cliff. Planet-local XYZ. Identity TRS under PlanetNyxara. No collider.
o NyxaraA2SouthCliff
v 24.2744639 -24.6879111 66.6935414
v 25.0875905 -25.1519014 66.2175633
v 25.8913139 -25.6148142 65.7289296
v 26.6420717 -26.3838875 65.1218974
v 27.4241478 -26.8438303 64.6072435
v 28.1961165 -27.3026233 64.0805493
v 28.9577644 -27.7602467 63.5420145
v 29.6825519 -28.3685581 62.9360155
v 30.3941316 -28.9747091 62.3172048
v 31.2356125 -28.8233764 61.9703196
v 32.1305241 -28.3685581 61.7221626
v 33.0228656 -27.9125246 61.4585417
v 33.8539462 -27.7602467 61.0741357
v 34.7398966 -27.3026233 60.7822126
v 35.6224679 -26.8438303 60.47495
v 36.5013727 -26.3838875 60.1524006
v 37.4359075 -25.6148142 59.9099754
v 38.306772 -25.1519014 59.5545473
v 39.1730566 -24.6879111 59.1840325
v 40.0344785 -24.2228634 58.7985072
v 40.8907566 -23.7567779 58.3980526
v 41.8005854 -22.9777173 58.064676
v 42.6455899 -22.5089626 57.6322071
v 43.5423545 -21.7255721 57.2611029
v 44.3747427 -21.2542909 56.7970805
v 45.2568241 -20.466809 56.3888342
v 46.0752741 -19.9931448 55.893777
v 46.9410804 -19.2018115 55.4490436
v 47.7974436 -18.4081933 54.9846691
v 48.6181956 -17.7717171 54.472086
v 49.4799808 -16.8144805 53.9979237
v 50.2811803 -16.1747119 53.4504689
v 51.1192237 -15.2127648 52.9355058
v 51.8992372 -14.5700084 52.3541312
v 52.7116085 -13.6038087 51.7995534
v 53.4891444 -12.7968547 51.2047162
v 54.2536781 -11.988378 50.5923733
v 55.0227166 -11.0163314 49.9791169
v 55.7754384 -10.0423973 49.3459395
v 56.5113277 -9.06674238 48.6932752
v 57.22988 -8.08953396 48.0215712
v 24.1878829 -25.6396556 66.455662
v 24.922552 -26.0255851 65.7819514
v 25.5715037 -26.3340553 64.917044
v 26.2065285 -26.9883369 64.0572882
v 26.9693002 -27.4368011 63.5356898
v 27.7257287 -27.8879624 63.0115117
v 28.4718452 -28.3379292 62.4757624
v 29.1805863 -28.9359932 61.871696
v 29.8761264 -29.5318536 61.2551367
v 30.704298 -29.3830976 60.9162109
v 31.5871605 -28.9359932 60.6783707
v 32.4676555 -28.4876493 60.4252453
v 33.2858679 -28.3379292 60.0492952
v 34.1603407 -27.8879624 59.7682002
v 35.0316458 -27.4368011 59.4719331
v 35.8994984 -26.9844644 59.1605424
v 36.8246099 -26.2280109 58.9316947
v 37.6849059 -25.772635 58.5877482
v 38.5408447 -25.316155 58.2288646
v 39.392146 -24.8585906 57.8551155
v 40.2385311 -24.3999614 57.466578
v 41.1403616 -23.6332663 57.1475673
v 41.9759846 -23.1718936 56.7272875
v 42.8653792 -22.400743 56.3708352
v 43.6889074 -21.9367674 55.9192515
v 44.5642584 -21.1613963 55.5259152
v 45.3743791 -20.6949591 55.0435234
v 46.2341047 -19.9156036 54.6139302
v 47.0847481 -19.1338784 54.1648067
v 47.8990739 -18.5068545 53.6663782
v 48.7569378 -17.563691 53.2088607
v 49.5523784 -16.9332334 52.6757296
v 50.3873036 -15.9851442 52.1775803
v 51.1622323 -15.351553 51.6106665
v 51.9722957 -14.3989893 51.0730327
v 52.7466953 -13.6032947 50.4939758
v 53.5084675 -12.8059814 49.8974532
v 54.2842492 -11.8489025 49.3083403
v 55.2510734 -10.9304089 48.8820205
v 56.3116302 -10.0211172 48.5212048
v 57.2049361 -9.07383069 48.0006407
v 24.0201524 -26.9539569 65.9948264
v 24.3625925 -26.9090237 64.3039637
v 24.2202696 -26.3606211 61.4867365
v 24.2754534 -26.3872707 59.3371118
v 24.9579235 -26.7804125 58.7971832
v 25.6542738 -27.1978963 58.3037723
v 26.340864 -27.6142151 57.7997508
v 26.991358 -28.1674637 57.2298678
v 27.6293517 -28.7185672 56.6485659
v 28.3966244 -28.5809948 56.3378705
v 29.2173827 -28.1674637 56.12607
v 30.0361642 -27.7527261 55.9000199
v 30.7945801 -27.6142151 55.5548931
v 31.6081407 -27.1978963 55.3027763
v 32.4189775 -26.7804125 55.0365024
v 33.2268245 -26.3617814 54.7561121
v 34.0910757 -25.6615624 54.5571257
v 34.8923989 -25.23996 54.2463097
v 35.689886 -24.8172764 53.9215358
v 36.483275 -24.3935298 53.5828662
v 37.2723049 -23.9687381 53.2303679
v 38.1163708 -23.2584795 52.9469791
v 38.8958758 -22.8309904 52.5647593
v 39.728984 -22.1163444 52.2462662
v 40.4977144 -21.6862881 51.8347107
v 41.3183566 -20.9674725 51.4816054
v 42.0750804 -20.53498 51.041154
v 42.8817711 -19.8122137 50.6539938
v 43.6803303 -19.0870898 50.248472
v 44.4435442 -18.5053514 49.7947843
v 45.2513137 -17.6301152 49.3831433
v 45.99751 -17.044937 48.8967932
v 46.7845995 -16.1647497 48.446871
v 47.5122458 -15.57641 47.9286881
v 48.2768424 -14.6916905 47.4415209
v 49.0065526 -13.9524948 46.9135682
v 49.7247903 -13.211639 46.3691171
v 50.4999626 -12.3324573 45.8709364
v 52.556881 -11.7386366 46.4984004
v 55.2895233 -11.2286454 47.6405012
v 57.0653717 -10.464765 47.8835323
v 23.815735 -28.4624051 65.4331941
v 23.8345904 -28.0136205 62.9103259
v 23.0432701 -26.6654388 58.498749
v 22.6219855 -26.1106543 55.2954981
v 23.2359229 -26.4548377 54.740404
v 23.8802153 -26.8434842 54.2719177
v 24.5151832 -27.2309808 53.79366
v 25.1148936 -27.7458255 53.251194
v 25.7026552 -28.2585573 52.6982526
v 26.417938 -28.1305746 52.4122286
v 27.186163 -27.7458255 52.2241332
v 27.9527821 -27.3598879 52.0226574
v 28.660213 -27.2309808 51.704393
v 29.4223572 -26.8434842 51.4784482
v 30.1821929 -26.4548377 51.2391957
v 30.9394698 -26.065058 50.9866682
v 31.7530004 -25.4129522 50.8154229
v 32.5047173 -25.0202322 50.5342429
v 33.253078 -24.6264405 50.2399205
v 33.9978351 -24.2315939 49.9325088
v 34.7387426 -23.8357093 49.6120661
v 35.5349693 -23.173641 49.3611862
v 36.2674848 -22.7750714 49.0126927
v 37.054113 -22.1086291 48.7286323
v 37.7770553 -21.707496 48.3524258
v 38.5526583 -21.0368828 48.0356167
v 39.2648616 -20.6333083 47.6320859
v 40.0280326 -19.9587284 47.2830217
v 40.7839325 -19.2817737 46.9165475
v 41.5050242 -18.7385541 46.5024508
v 42.2722678 -17.9210621 46.1320852
v 42.978019 -17.3743528 45.6869798
v 43.7266096 -16.551821 45.2802298
v 44.4155639 -16.0018822 44.8048639
v 45.1437773 -15.1747021 44.3626664
v 45.8374497 -14.4833932 43.879812
v 46.5206744 -13.7903609 43.3812307
v 47.2967076 -12.9792287 42.9613044
v 50.2548524 -12.7179115 44.4617375
v 54.3707166 -12.6322695 46.8488067
v 56.879199 -12.0689998 47.7273149
v 23.5781874 -30.1056749 64.7805375
v 23.5219441 -29.5125292 62.0851101
v 22.590465 -27.884084 57.3492364
v 22.0621242 -27.1277883 53.9270148
v 22.6523203 -27.4553006 53.3655224
v 23.2760418 -27.83415 52.8988289
v 23.8904128 -28.2118071 52.4227264
v 24.4686051 -28.7134672 51.8808663
v 25.0348086 -29.2129407 51.3289643
v 25.733164 -29.0882794 51.0536619
v 26.4865739 -28.7134672 50.8802351
v 27.2386749 -28.337425 50.6936392
v 27.9298063 -28.2118071 50.3867044
v 28.6779665 -27.83415 50.1760347
v 29.424125 -27.4553006 49.9522518
v 30.1680348 -27.075275 49.7153827
v 30.9708772 -26.4393299 49.5637642
v 31.7099286 -26.0562478 49.2986055
v 32.4459432 -25.6720496 49.0204729
v 33.1786766 -25.2867517 48.7294134
v 33.9078852 -24.9003706 48.4254787
v 34.6954866 -24.2540399 48.1950711
v 35.4170344 -23.8648513 47.863375
v 36.1959383 -23.2139401 47.6000752
v 36.9086543 -22.8220626 47.2409232
v 37.6774449 -22.1667692 46.9451234
v 38.3801719 -21.772322 46.5588715
v 39.137452 -21.112846 46.2310254
v 39.8879711 -20.4508577 45.8858617
v 40.6024762 -19.9195112 45.4912312
v 41.3670826 -19.1196598 45.1442489
v 42.0671827 -18.5845971 44.7187322
v 42.814261 -17.779362 44.3354651
v 43.4985035 -17.2408377 43.8797656
v 44.226333 -16.4306022 43.4610964
v 44.9182341 -15.7532495 42.9998546
v 45.6002052 -15.0740223 42.5228793
v 46.3847968 -14.2842403 42.132983
v 49.5442577 -14.1709508 43.8330565
v 53.9665521 -14.2878145 46.5005563
v 56.6439573 -13.8263908 47.5299237
v 23.3085033 -31.8503638 64.0395864
v 23.1919211 -31.1170614 61.2140294
v 22.1519368 -29.2179996 56.2359678
v 21.539198 -28.2680008 52.6488128
v 22.1073756 -28.579764 52.0817131
v 22.7113872 -28.9494612 51.6155538
v 23.3059944 -29.3179184 51.1403372
v 23.8690571 -29.8143591 50.6096427
v 25.0257329 -31.0601639 51.3103563
v 25.4854047 -30.646633 50.5621165
v 25.8375801 -29.8143591 49.6335297
v 26.5704949 -29.4404591 49.4500958
v 27.2465744 -29.3179184 49.1541214
v 27.9822664 -28.9494612 48.958812
v 28.7162716 -28.579764 48.7505553
v 29.4483458 -28.2088425 48.5293719
v 30.2423217 -27.5879625 48.3978316
v 30.9702567 -27.2138542 48.1486567
v 31.6954802 -26.83858 47.886647
v 32.4177499 -26.4621562 47.6118429
v 33.1368243 -26.0845988 47.3242896
v 33.9176715 -25.4528615 47.1146178
v 34.6298273 -25.0723605 46.7995257
v 35.4028936 -24.4358136 46.5571685
v 36.1069671 -24.0524849 46.2148104
v 36.8708444 -23.4113223 45.94012
v 37.5656841 -23.0252827 45.5708189
v 38.3189808 -22.3796998 45.2642083
v 39.0660303 -21.7314538 44.9403271
v 39.7757023 -21.2109915 44.5649093
v 40.539747 -20.4272819 44.2413706
v 41.2359503 -19.902856 43.8351062
v 41.9835923 -19.1133877 43.4752825
v 42.6648744 -18.5852477 43.0388297
v 43.3943918 -17.7903965 42.64355
v 44.0864276 -17.1256862 42.2035731
v 44.7690458 -16.4589381 41.7478106
v 45.5626155 -15.6890959 41.386166
v 48.8804919 -15.7283706 43.2458061
v 53.5436195 -16.0571491 46.1361342
v 56.3560588 -15.7037382 47.2883481
v 23.0067604 -33.6736601 63.2105546
v 22.8721029 -32.8472614 60.3698835
v 21.8112606 -30.7721767 55.3711107
v 21.1773329 -29.6969209 51.7642968
v 21.9628158 -30.3192922 51.7411516
v 23.2472177 -31.6243811 52.8333211
v 24.8192623 -33.3014025 54.4609006
v 26.7842626 -35.6585668 56.7907629
v 28.402645 -37.5466108 58.2340521
v 29.004922 -37.1562007 57.5447108
v 28.9932078 -35.6585668 55.695434
v 28.687942 -33.8978753 53.3908564
v 29.0157058 -33.3014025 52.3457189
v 28.6424529 -31.6243811 50.1138987
v 28.5284964 -30.3192922 48.4317761
v 28.9523907 -29.6335297 47.7120632
v 29.7439763 -29.0229933 47.6003122
v 30.4666066 -28.6550091 47.365645
v 31.186841 -28.2857975 47.1181769
v 31.9044373 -27.9153742 46.8579423
v 32.619154 -27.5437551 46.5849797
v 33.3996989 -26.9217758 46.3951085
v 34.1082109 -26.5470459 46.0946015
v 34.8818631 -25.9199768 45.8719786
v 35.5830041 -25.5422502 45.5441683
v 36.3483511 -24.9102824 45.2891068
v 37.0409658 -24.5296741 44.9342846
v 37.7966101 -23.893 44.647159
v 38.5464886 -23.2534829 44.3426627
v 39.2572463 -22.7398733 43.9840285
v 40.0272972 -21.9662242 43.6821297
v 40.7254457 -21.448359 43.2924238
v 41.4801253 -20.6685108 42.9539271
v 42.1641996 -20.1466364 42.5337666
v 42.9017697 -19.3609604 42.1594516
v 43.5999161 -18.7036905 41.7378397
v 44.2890979 -18.0441952 41.300252
v 45.093156 -17.2868741 40.9597391
v 48.4471384 -17.4443877 42.8624074
v 53.1627877 -17.9428175 45.8079885
v 56.0117424 -17.6787637 46.9994324
v 22.6726472 -35.5581973 62.2925862
v 22.6498975 -34.8329123 59.7833825
v 22.3906996 -33.8075203 56.8421025
v 23.7488436 -35.6069502 58.0499061
v 25.1632092 -37.1203191 59.2808059
v 26.2156722 -38.088852 59.5796472
v 26.8992481 -38.5282479 59.025013
v 27.5250835 -39.0928312 58.3615278
v 28.1360289 -39.6544374 57.6874082
v 28.9275937 -39.5143173 57.3912942
v 29.7951254 -39.0928312 57.2359034
v 30.6622171 -38.6696705 57.0651612
v 31.4473759 -38.5282479 56.7325679
v 32.299829 -38.088852 56.5129797
v 32.6856323 -37.1203191 55.4891925
v 32.5215644 -35.589553 53.5938795
v 31.2151992 -32.5969892 49.9547611
v 30.7758532 -30.996813 47.8464226
v 30.7346602 -29.8695108 46.4350063
v 31.3154665 -29.3789554 45.9929228
v 32.0244181 -29.0141541 45.7356088
v 32.8033029 -28.4033979 45.5666623
v 33.5068031 -28.0353172 45.2818456
v 34.279731 -27.4191885 45.0801348
v 34.9766128 -27.0479405 44.7680229
v 35.7421693 -26.4266269 44.53382
v 36.4312755 -26.0523247 44.1946711
v 37.1880592 -25.4260155 43.9283097
v 37.939588 -24.796681 43.6445034
v 38.6502498 -24.2910853 43.3039463
v 39.4252212 -23.5292354 43.025079
v 40.1241896 -23.0190876 42.6532697
v 40.884889 -22.2505912 42.3375419
v 41.5706888 -21.736134 41.9350536
v 42.315364 -20.9613569 41.5831924
v 43.0186636 -20.31296 41.1814114
v 43.713485 -19.6621461 40.7634842
v 44.5276028 -18.9195433 40.4460267
v 47.9281914 -19.2100455 42.4032818
v 52.7129607 -19.8986439 45.4203928
v 55.6073357 -19.7347509 46.6600949
v 22.3056851 -37.4897785 61.2843662
v 23.0253263 -37.9270062 60.7743099
v 23.7657002 -38.4134902 60.3327449
v 24.4140407 -39.1518405 59.6758643
v 25.0932044 -39.5742371 59.115885
v 25.7599879 -39.993713 58.5440258
v 26.4149819 -40.4114756 57.9623876
v 27.019958 -40.9657966 57.2905087
v 27.6097824 -41.5169979 56.6084429
v 28.3890993 -41.3794924 56.3229408
v 29.2483415 -40.9657966 56.1855412
v 30.1075453 -40.5503461 56.0328668
v 30.8812298 -40.4114756 55.7112133
v 31.738389 -39.993713 55.5306635
v 32.5946999 -39.5742371 55.33482
v 33.4498723 -39.153066 55.1236834
v 34.3928411 -38.4473961 55.0400511
v 35.1921973 -37.9640511 54.7123986
v 35.3822955 -36.8506794 53.4568172
v 35.0037776 -35.2129099 51.4099332
v 34.3163858 -33.357919 49.0088779
v 32.8771856 -30.5752541 45.6692917
v 32.8497912 -29.5402366 44.3939448
v 33.550956 -28.8756722 44.1217469
v 34.24124 -28.5122731 43.8267887
v 35.0045816 -27.9039015 43.6148047
v 35.6878874 -27.5372801 43.2928693
v 36.4434415 -26.923631 43.0487317
v 37.1942832 -26.3067782 42.7871284
v 37.9025899 -25.8110387 42.4662642
v 38.6801667 -25.0637557 42.2119947
v 39.3777601 -24.5631733 41.8597918
v 40.142242 -23.8088042 41.5685084
v 40.8276408 -23.3036171 41.1854928
v 41.577267 -22.542521 40.8578665
v 42.283639 -21.9053182 40.4777784
v 42.9820607 -21.2655088 40.08142
v 43.8052828 -20.5412669 39.7899174
v 47.2799307 -20.9901913 41.8297492
v 52.1768252 -21.9039915 44.9584289
v 55.1393476 -21.8581815 46.2674062
v 21.9053389 -39.4562018 60.184424
v 22.6118997 -39.8968161 59.6830891
v 23.3203162 -40.3575122 59.2020716
v 23.9426839 -41.079313 58.5237149
v 24.6017666 -41.4934019 57.95813
v 25.2483896 -41.9046049 57.3813304
v 25.8830331 -42.3140128 56.7951326
v 26.4657147 -42.8570673 56.1153445
v 27.0329908 -43.3968582 55.4258448
v 27.7987247 -43.2622187 55.1516591
v 28.6483886 -42.8570673 55.0330425
v 29.4984302 -42.4500801 54.8992484
v 30.2593391 -42.3140128 54.5892928
v 31.1080586 -41.9046049 54.4278141
v 31.9563491 -41.4934019 54.2511153
v 32.803921 -41.0804216 54.0591888
v 33.7441915 -40.3882192 54.0019949
v 34.5904274 -39.9705857 53.7768424
v 35.4350146 -39.5512399 53.5364672
v 36.2776636 -39.1302 53.2808853
v 37.1180846 -38.7074838 53.0101185
v 37.9872154 -37.9333693 52.7675709
v 38.0733517 -36.7841811 51.4531818
v 36.5547034 -33.8350827 48.0718753
v 35.6599321 -31.9547826 45.6426317
v 34.4429498 -29.5799292 42.915026
v 34.8782217 -29.0145749 42.3106663
v 35.6314494 -28.4147229 42.089568
v 36.3805255 -27.8114897 41.8510072
v 37.0854236 -27.326517 41.5507066
v 37.8645587 -26.5951677 41.3219148
v 38.5597595 -26.1050621 40.9902315
v 39.3270203 -25.3661878 40.7243217
v 40.0110383 -24.8711825 40.3617329
v 40.7646578 -24.1251351 40.0593176
v 41.4731661 -23.5002657 39.7019194
v 42.1742743 -22.8726 39.328147
v 43.0058423 -22.1686171 39.0637568
v 46.557261 -22.7917136 41.190385
v 51.5711839 -23.9532125 44.436575
v 54.6045073 -24.0375183 45.818622
v 21.4710779 -41.4465893 58.9913017
v 22.1539644 -41.8738447 58.4743894
v 22.8348628 -42.3161645 57.9696765
v 23.4282194 -43.0165881 57.266196
v 24.0657589 -43.4214893 56.695375
v 24.6908284 -43.8236726 56.114176
v 25.3037368 -44.2239785 55.5239828
v 25.862742 -44.75477 54.8368596
v 26.4060989 -45.2821533 54.1405261
v 27.1569151 -45.1506292 53.8783322
v 27.9956878 -44.75477 53.7792159
v 28.8352663 -44.3569937 53.6650404
v 29.5820953 -44.2239785 53.3675126
v 30.421098 -43.8236726 53.2258824
v 31.2601044 -43.4214893 53.0691264
v 32.098826 -43.017446 52.8972281
v 33.035187 -42.3399542 52.8673504
v 33.8735574 -41.9310357 52.6623432
v 34.7107153 -41.520321 52.4421703
v 35.5463713 -41.1078277 52.2068389
v 36.3802362 -40.6935734 51.9563618
v 37.3143446 -39.9992848 51.8328944
v 38.1445261 -39.5804217 51.5493684
v 39.0750429 -38.8785577 51.38629
v 39.9001296 -38.4552134 51.069837
v 40.4158396 -37.3673757 50.3570925
v 40.0169391 -35.8603028 48.5444289
v 37.9966609 -32.6757854 44.8834686
v 36.2281309 -29.8994949 41.6756972
v 36.2467816 -28.8621833 40.6110877
v 37.0273425 -28.1471881 40.4082536
v 37.7199678 -27.6678376 40.0975067
v 38.4898982 -26.9448727 39.8574563
v 39.1723721 -26.4603235 39.5157158
v 39.9298986 -25.729733 39.2390021
v 40.6404347 -25.1175346 38.9047526
v 41.3441319 -24.5023474 38.5540268
v 42.1834753 -23.8192348 38.3167711
v 45.7973556 -24.6229506 40.5180775
v 50.906907 -26.0421095 43.8641974
v 53.9997824 -26.2625114 45.3111975
v 21.002413 -43.4509771 57.7036556
v 21.6594857 -43.861621 57.1692353
v 22.3098344 -44.2798069 56.636814
v 22.8716443 -44.9542061 55.9057453
v 23.4862515 -45.3490632 55.3301413
v 24.0884321 -45.7414981 54.7451264
v 24.6782798 -46.1319736 54.1515428
v 25.212296 -46.6495307 53.4577168
v 25.7304334 -47.1635353 52.7552064
v 26.4650232 -47.0353694 52.5056439
v 27.2915984 -46.6495307 52.4266727
v 28.1194181 -46.2616938 52.3327821
v 28.850886 -46.1319736 52.0483762
v 29.6788971 -45.7414981 51.9273001
v 30.5073561 -45.3490632 51.7912132
v 31.335976 -44.9546856 51.6400902
v 32.2671913 -44.2931188 51.6383004
v 33.096472 -43.8936438 51.4542287
v 33.9249895 -43.4922885 51.255068
v 34.7524551 -43.0890702 51.0408167
v 35.5785801 -42.6840061 50.8114783
v 36.5105049 -42.0048447 50.7162906
v 37.3339646 -41.5949435 50.4539575
v 38.2635626 -40.9078241 50.3191393
v 39.0829448 -40.4932107 50.0238882
v 40.0084976 -39.7983425 49.8495549
v 40.8223939 -39.3791432 49.5215237
v 41.7421895 -38.676738 49.3078657
v 42.6038497 -37.9212684 49.0101227
v 42.1955956 -36.2660385 47.2761707
v 39.5197043 -32.4690509 43.1281893
v 38.0123764 -30.1631494 40.4083461
v 37.7326138 -28.6179972 39.0732654
v 38.4151961 -28.1428975 38.7519032
v 39.178564 -27.4262409 38.5006676
v 39.8929131 -26.825432 38.1891563
v 40.6009775 -26.2214312 37.8610241
v 41.4482103 -25.5570039 37.6489035
v 45.0768249 -26.5237943 39.8806058
v 50.2086605 -28.1775285 43.2625497
v 53.3223885 -28.5237737 44.7427965
v 20.498921 -45.46005 56.3203224
v 21.1285069 -45.8513461 55.7677405
v 21.7462209 -46.2406781 55.2059978
v 22.2746559 -46.8851547 54.4465113
v 22.8650381 -47.2691678 53.8666542
v 23.4430679 -47.6511559 53.2784246
v 24.0086035 -48.0311029 52.6820723
v 24.5163991 -48.5344955 51.9822042
v 25.0080986 -49.034192 51.2742006
v 25.7252032 -48.9096165 51.0378679
v 26.5383096 -48.5344955 50.9796184
v 27.3531084 -48.1572954 50.9066104
v 28.0679808 -48.0311029 50.6359777
v 28.8837562 -47.6511559 50.536092
v 29.7004338 -47.2691678 50.4213311
v 30.5177288 -46.8851547 50.2916605
v 31.4425724 -46.2406781 50.3186343
v 32.2615635 -45.8513461 50.156218
v 33.0802523 -45.46005 49.9788094
v 33.8983513 -45.0668065 49.7863973
v 34.7155728 -44.6716326 49.5789761
v 35.6441581 -44.0087653 49.512859
v 36.4597599 -43.6085262 49.2725377
v 37.3873163 -42.9373185 49.1668169
v 38.199887 -42.5321363 48.8936257
v 39.1246952 -41.8527926 48.74836
v 39.9328251 -41.4427907 48.4423905
v 40.8531699 -40.755518 48.2577133
v 41.7705367 -40.0633957 48.0515058
v 42.6271206 -39.5062615 47.7596536
v 43.5942799 -38.6649326 47.5748082
v 44.4427847 -38.1003571 47.2440716
v 43.5750455 -35.750828 45.1232806
v 41.8286198 -33.1783795 42.1952454
v 39.1475203 -29.7139426 38.470161
v 39.1209896 -28.5597319 37.4502003
v 39.8333297 -27.9672844 37.1451809
v 40.6878677 -27.3219378 36.9582569
v 44.3160875 -28.4514064 39.2075622
v 49.4473965 -30.3395677 42.6066027
v 52.5697965 -30.8125075 44.1112968
vt 0 0
vt 0.0984692947 0
vt 0.196938589 0
vt 0.295407884 0
vt 0.393877179 0
vt 0.492346474 0
vt 0.590815768 0
vt 0.689285063 0
vt 0.787754358 0
vt 0.886223653 0
vt 0.984692947 0
vt 1.08316224 0
vt 1.18163154 0
vt 1.28010083 0
vt 1.37857013 0
vt 1.47703942 0
vt 1.57550872 0
vt 1.67397801 0
vt 1.77244731 0
vt 1.8709166 0
vt 1.96938589 0
vt 2.06785519 0
vt 2.16632448 0
vt 2.26479378 0
vt 2.36326307 0
vt 2.46173237 0
vt 2.56020166 0
vt 2.65867096 0
vt 2.75714025 0
vt 2.85560955 0
vt 2.95407884 0
vt 3.05254814 0
vt 3.15101743 0
vt 3.24948673 0
vt 3.34795602 0
vt 3.44642532 0
vt 3.54489461 0
vt 3.64336391 0
vt 3.7418332 0
vt 3.84030249 0
vt 3.93877179 0
vt 0 0.0982109867
vt 0.0984692947 0.0982109867
vt 0.196938589 0.0982109867
vt 0.295407884 0.0982109867
vt 0.393877179 0.0982109867
vt 0.492346474 0.0982109867
vt 0.590815768 0.0982109867
vt 0.689285063 0.0982109867
vt 0.787754358 0.0982109867
vt 0.886223653 0.0982109867
vt 0.984692947 0.0982109867
vt 1.08316224 0.0982109867
vt 1.18163154 0.0982109867
vt 1.28010083 0.0982109867
vt 1.37857013 0.0982109867
vt 1.47703942 0.0982109867
vt 1.57550872 0.0982109867
vt 1.67397801 0.0982109867
vt 1.77244731 0.0982109867
vt 1.8709166 0.0982109867
vt 1.96938589 0.0982109867
vt 2.06785519 0.0982109867
vt 2.16632448 0.0982109867
vt 2.26479378 0.0982109867
vt 2.36326307 0.0982109867
vt 2.46173237 0.0982109867
vt 2.56020166 0.0982109867
vt 2.65867096 0.0982109867
vt 2.75714025 0.0982109867
vt 2.85560955 0.0982109867
vt 2.95407884 0.0982109867
vt 3.05254814 0.0982109867
vt 3.15101743 0.0982109867
vt 3.24948673 0.0982109867
vt 3.34795602 0.0982109867
vt 3.44642532 0.0982109867
vt 3.54489461 0.0982109867
vt 3.64336391 0.0982109867
vt 3.7418332 0.0982109867
vt 3.84030249 0.0982109867
vt 3.93877179 0.0982109867
vt 0 0.238494555
vt 0.0984692947 0.238494555
vt 0.196938589 0.238494555
vt 0.295407884 0.238494555
vt 0.393877179 0.238494555
vt 0.492346474 0.238494555
vt 0.590815768 0.238494555
vt 0.689285063 0.238494555
vt 0.787754358 0.238494555
vt 0.886223653 0.238494555
vt 0.984692947 0.238494555
vt 1.08316224 0.238494555
vt 1.18163154 0.238494555
vt 1.28010083 0.238494555
vt 1.37857013 0.238494555
vt 1.47703942 0.238494555
vt 1.57550872 0.238494555
vt 1.67397801 0.238494555
vt 1.77244731 0.238494555
vt 1.8709166 0.238494555
vt 1.96938589 0.238494555
vt 2.06785519 0.238494555
vt 2.16632448 0.238494555
vt 2.26479378 0.238494555
vt 2.36326307 0.238494555
vt 2.46173237 0.238494555
vt 2.56020166 0.238494555
vt 2.65867096 0.238494555
vt 2.75714025 0.238494555
vt 2.85560955 0.238494555
vt 2.95407884 0.238494555
vt 3.05254814 0.238494555
vt 3.15101743 0.238494555
vt 3.24948673 0.238494555
vt 3.34795602 0.238494555
vt 3.44642532 0.238494555
vt 3.54489461 0.238494555
vt 3.64336391 0.238494555
vt 3.7418332 0.238494555
vt 3.84030249 0.238494555
vt 3.93877179 0.238494555
vt 0 0.400751614
vt 0.0984692947 0.400751614
vt 0.196938589 0.400751614
vt 0.295407884 0.400751614
vt 0.393877179 0.400751614
vt 0.492346474 0.400751614
vt 0.590815768 0.400751614
vt 0.689285063 0.400751614
vt 0.787754358 0.400751614
vt 0.886223653 0.400751614
vt 0.984692947 0.400751614
vt 1.08316224 0.400751614
vt 1.18163154 0.400751614
vt 1.28010083 0.400751614
vt 1.37857013 0.400751614
vt 1.47703942 0.400751614
vt 1.57550872 0.400751614
vt 1.67397801 0.400751614
vt 1.77244731 0.400751614
vt 1.8709166 0.400751614
vt 1.96938589 0.400751614
vt 2.06785519 0.400751614
vt 2.16632448 0.400751614
vt 2.26479378 0.400751614
vt 2.36326307 0.400751614
vt 2.46173237 0.400751614
vt 2.56020166 0.400751614
vt 2.65867096 0.400751614
vt 2.75714025 0.400751614
vt 2.85560955 0.400751614
vt 2.95407884 0.400751614
vt 3.05254814 0.400751614
vt 3.15101743 0.400751614
vt 3.24948673 0.400751614
vt 3.34795602 0.400751614
vt 3.44642532 0.400751614
vt 3.54489461 0.400751614
vt 3.64336391 0.400751614
vt 3.7418332 0.400751614
vt 3.84030249 0.400751614
vt 3.93877179 0.400751614
vt 0 0.579157738
vt 0.0984692947 0.579157738
vt 0.196938589 0.579157738
vt 0.295407884 0.579157738
vt 0.393877179 0.579157738
vt 0.492346474 0.579157738
vt 0.590815768 0.579157738
vt 0.689285063 0.579157738
vt 0.787754358 0.579157738
vt 0.886223653 0.579157738
vt 0.984692947 0.579157738
vt 1.08316224 0.579157738
vt 1.18163154 0.579157738
vt 1.28010083 0.579157738
vt 1.37857013 0.579157738
vt 1.47703942 0.579157738
vt 1.57550872 0.579157738
vt 1.67397801 0.579157738
vt 1.77244731 0.579157738
vt 1.8709166 0.579157738
vt 1.96938589 0.579157738
vt 2.06785519 0.579157738
vt 2.16632448 0.579157738
vt 2.26479378 0.579157738
vt 2.36326307 0.579157738
vt 2.46173237 0.579157738
vt 2.56020166 0.579157738
vt 2.65867096 0.579157738
vt 2.75714025 0.579157738
vt 2.85560955 0.579157738
vt 2.95407884 0.579157738
vt 3.05254814 0.579157738
vt 3.15101743 0.579157738
vt 3.24948673 0.579157738
vt 3.34795602 0.579157738
vt 3.44642532 0.579157738
vt 3.54489461 0.579157738
vt 3.64336391 0.579157738
vt 3.7418332 0.579157738
vt 3.84030249 0.579157738
vt 3.93877179 0.579157738
vt 0 0.770622491
vt 0.0984692947 0.770622491
vt 0.196938589 0.770622491
vt 0.295407884 0.770622491
vt 0.393877179 0.770622491
vt 0.492346474 0.770622491
vt 0.590815768 0.770622491
vt 0.689285063 0.770622491
vt 0.787754358 0.770622491
vt 0.886223653 0.770622491
vt 0.984692947 0.770622491
vt 1.08316224 0.770622491
vt 1.18163154 0.770622491
vt 1.28010083 0.770622491
vt 1.37857013 0.770622491
vt 1.47703942 0.770622491
vt 1.57550872 0.770622491
vt 1.67397801 0.770622491
vt 1.77244731 0.770622491
vt 1.8709166 0.770622491
vt 1.96938589 0.770622491
vt 2.06785519 0.770622491
vt 2.16632448 0.770622491
vt 2.26479378 0.770622491
vt 2.36326307 0.770622491
vt 2.46173237 0.770622491
vt 2.56020166 0.770622491
vt 2.65867096 0.770622491
vt 2.75714025 0.770622491
vt 2.85560955 0.770622491
vt 2.95407884 0.770622491
vt 3.05254814 0.770622491
vt 3.15101743 0.770622491
vt 3.24948673 0.770622491
vt 3.34795602 0.770622491
vt 3.44642532 0.770622491
vt 3.54489461 0.770622491
vt 3.64336391 0.770622491
vt 3.7418332 0.770622491
vt 3.84030249 0.770622491
vt 3.93877179 0.770622491
vt 0 0.973181119
vt 0.0984692947 0.973181119
vt 0.196938589 0.973181119
vt 0.295407884 0.973181119
vt 0.393877179 0.973181119
vt 0.492346474 0.973181119
vt 0.590815768 0.973181119
vt 0.689285063 0.973181119
vt 0.787754358 0.973181119
vt 0.886223653 0.973181119
vt 0.984692947 0.973181119
vt 1.08316224 0.973181119
vt 1.18163154 0.973181119
vt 1.28010083 0.973181119
vt 1.37857013 0.973181119
vt 1.47703942 0.973181119
vt 1.57550872 0.973181119
vt 1.67397801 0.973181119
vt 1.77244731 0.973181119
vt 1.8709166 0.973181119
vt 1.96938589 0.973181119
vt 2.06785519 0.973181119
vt 2.16632448 0.973181119
vt 2.26479378 0.973181119
vt 2.36326307 0.973181119
vt 2.46173237 0.973181119
vt 2.56020166 0.973181119
vt 2.65867096 0.973181119
vt 2.75714025 0.973181119
vt 2.85560955 0.973181119
vt 2.95407884 0.973181119
vt 3.05254814 0.973181119
vt 3.15101743 0.973181119
vt 3.24948673 0.973181119
vt 3.34795602 0.973181119
vt 3.44642532 0.973181119
vt 3.54489461 0.973181119
vt 3.64336391 0.973181119
vt 3.7418332 0.973181119
vt 3.84030249 0.973181119
vt 3.93877179 0.973181119
vt 0 1.18545634
vt 0.0984692947 1.18545634
vt 0.196938589 1.18545634
vt 0.295407884 1.18545634
vt 0.393877179 1.18545634
vt 0.492346474 1.18545634
vt 0.590815768 1.18545634
vt 0.689285063 1.18545634
vt 0.787754358 1.18545634
vt 0.886223653 1.18545634
vt 0.984692947 1.18545634
vt 1.08316224 1.18545634
vt 1.18163154 1.18545634
vt 1.28010083 1.18545634
vt 1.37857013 1.18545634
vt 1.47703942 1.18545634
vt 1.57550872 1.18545634
vt 1.67397801 1.18545634
vt 1.77244731 1.18545634
vt 1.8709166 1.18545634
vt 1.96938589 1.18545634
vt 2.06785519 1.18545634
vt 2.16632448 1.18545634
vt 2.26479378 1.18545634
vt 2.36326307 1.18545634
vt 2.46173237 1.18545634
vt 2.56020166 1.18545634
vt 2.65867096 1.18545634
vt 2.75714025 1.18545634
vt 2.85560955 1.18545634
vt 2.95407884 1.18545634
vt 3.05254814 1.18545634
vt 3.15101743 1.18545634
vt 3.24948673 1.18545634
vt 3.34795602 1.18545634
vt 3.44642532 1.18545634
vt 3.54489461 1.18545634
vt 3.64336391 1.18545634
vt 3.7418332 1.18545634
vt 3.84030249 1.18545634
vt 3.93877179 1.18545634
vt 0 1.40642072
vt 0.0984692947 1.40642072
vt 0.196938589 1.40642072
vt 0.295407884 1.40642072
vt 0.393877179 1.40642072
vt 0.492346474 1.40642072
vt 0.590815768 1.40642072
vt 0.689285063 1.40642072
vt 0.787754358 1.40642072
vt 0.886223653 1.40642072
vt 0.984692947 1.40642072
vt 1.08316224 1.40642072
vt 1.18163154 1.40642072
vt 1.28010083 1.40642072
vt 1.37857013 1.40642072
vt 1.47703942 1.40642072
vt 1.57550872 1.40642072
vt 1.67397801 1.40642072
vt 1.77244731 1.40642072
vt 1.8709166 1.40642072
vt 1.96938589 1.40642072
vt 2.06785519 1.40642072
vt 2.16632448 1.40642072
vt 2.26479378 1.40642072
vt 2.36326307 1.40642072
vt 2.46173237 1.40642072
vt 2.56020166 1.40642072
vt 2.65867096 1.40642072
vt 2.75714025 1.40642072
vt 2.85560955 1.40642072
vt 2.95407884 1.40642072
vt 3.05254814 1.40642072
vt 3.15101743 1.40642072
vt 3.24948673 1.40642072
vt 3.34795602 1.40642072
vt 3.44642532 1.40642072
vt 3.54489461 1.40642072
vt 3.64336391 1.40642072
vt 3.7418332 1.40642072
vt 3.84030249 1.40642072
vt 3.93877179 1.40642072
vt 0 1.63527383
vt 0.0984692947 1.63527383
vt 0.196938589 1.63527383
vt 0.295407884 1.63527383
vt 0.393877179 1.63527383
vt 0.492346474 1.63527383
vt 0.590815768 1.63527383
vt 0.689285063 1.63527383
vt 0.787754358 1.63527383
vt 0.886223653 1.63527383
vt 0.984692947 1.63527383
vt 1.08316224 1.63527383
vt 1.18163154 1.63527383
vt 1.28010083 1.63527383
vt 1.37857013 1.63527383
vt 1.47703942 1.63527383
vt 1.57550872 1.63527383
vt 1.67397801 1.63527383
vt 1.77244731 1.63527383
vt 1.8709166 1.63527383
vt 1.96938589 1.63527383
vt 2.06785519 1.63527383
vt 2.16632448 1.63527383
vt 2.26479378 1.63527383
vt 2.36326307 1.63527383
vt 2.46173237 1.63527383
vt 2.56020166 1.63527383
vt 2.65867096 1.63527383
vt 2.75714025 1.63527383
vt 2.85560955 1.63527383
vt 2.95407884 1.63527383
vt 3.05254814 1.63527383
vt 3.15101743 1.63527383
vt 3.24948673 1.63527383
vt 3.34795602 1.63527383
vt 3.44642532 1.63527383
vt 3.54489461 1.63527383
vt 3.64336391 1.63527383
vt 3.7418332 1.63527383
vt 3.84030249 1.63527383
vt 3.93877179 1.63527383
vt 0 1.87137177
vt 0.0984692947 1.87137177
vt 0.196938589 1.87137177
vt 0.295407884 1.87137177
vt 0.393877179 1.87137177
vt 0.492346474 1.87137177
vt 0.590815768 1.87137177
vt 0.689285063 1.87137177
vt 0.787754358 1.87137177
vt 0.886223653 1.87137177
vt 0.984692947 1.87137177
vt 1.08316224 1.87137177
vt 1.18163154 1.87137177
vt 1.28010083 1.87137177
vt 1.37857013 1.87137177
vt 1.47703942 1.87137177
vt 1.57550872 1.87137177
vt 1.67397801 1.87137177
vt 1.77244731 1.87137177
vt 1.8709166 1.87137177
vt 1.96938589 1.87137177
vt 2.06785519 1.87137177
vt 2.16632448 1.87137177
vt 2.26479378 1.87137177
vt 2.36326307 1.87137177
vt 2.46173237 1.87137177
vt 2.56020166 1.87137177
vt 2.65867096 1.87137177
vt 2.75714025 1.87137177
vt 2.85560955 1.87137177
vt 2.95407884 1.87137177
vt 3.05254814 1.87137177
vt 3.15101743 1.87137177
vt 3.24948673 1.87137177
vt 3.34795602 1.87137177
vt 3.44642532 1.87137177
vt 3.54489461 1.87137177
vt 3.64336391 1.87137177
vt 3.7418332 1.87137177
vt 3.84030249 1.87137177
vt 3.93877179 1.87137177
vt 0 2.11418366
vt 0.0984692947 2.11418366
vt 0.196938589 2.11418366
vt 0.295407884 2.11418366
vt 0.393877179 2.11418366
vt 0.492346474 2.11418366
vt 0.590815768 2.11418366
vt 0.689285063 2.11418366
vt 0.787754358 2.11418366
vt 0.886223653 2.11418366
vt 0.984692947 2.11418366
vt 1.08316224 2.11418366
vt 1.18163154 2.11418366
vt 1.28010083 2.11418366
vt 1.37857013 2.11418366
vt 1.47703942 2.11418366
vt 1.57550872 2.11418366
vt 1.67397801 2.11418366
vt 1.77244731 2.11418366
vt 1.8709166 2.11418366
vt 1.96938589 2.11418366
vt 2.06785519 2.11418366
vt 2.16632448 2.11418366
vt 2.26479378 2.11418366
vt 2.36326307 2.11418366
vt 2.46173237 2.11418366
vt 2.56020166 2.11418366
vt 2.65867096 2.11418366
vt 2.75714025 2.11418366
vt 2.85560955 2.11418366
vt 2.95407884 2.11418366
vt 3.05254814 2.11418366
vt 3.15101743 2.11418366
vt 3.24948673 2.11418366
vt 3.34795602 2.11418366
vt 3.44642532 2.11418366
vt 3.54489461 2.11418366
vt 3.64336391 2.11418366
vt 3.7418332 2.11418366
vt 3.84030249 2.11418366
vt 3.93877179 2.11418366
vt 0 2.36326307
vt 0.0984692947 2.36326307
vt 0.196938589 2.36326307
vt 0.295407884 2.36326307
vt 0.393877179 2.36326307
vt 0.492346474 2.36326307
vt 0.590815768 2.36326307
vt 0.689285063 2.36326307
vt 0.787754358 2.36326307
vt 0.886223653 2.36326307
vt 0.984692947 2.36326307
vt 1.08316224 2.36326307
vt 1.18163154 2.36326307
vt 1.28010083 2.36326307
vt 1.37857013 2.36326307
vt 1.47703942 2.36326307
vt 1.57550872 2.36326307
vt 1.67397801 2.36326307
vt 1.77244731 2.36326307
vt 1.8709166 2.36326307
vt 1.96938589 2.36326307
vt 2.06785519 2.36326307
vt 2.16632448 2.36326307
vt 2.26479378 2.36326307
vt 2.36326307 2.36326307
vt 2.46173237 2.36326307
vt 2.56020166 2.36326307
vt 2.65867096 2.36326307
vt 2.75714025 2.36326307
vt 2.85560955 2.36326307
vt 2.95407884 2.36326307
vt 3.05254814 2.36326307
vt 3.15101743 2.36326307
vt 3.24948673 2.36326307
vt 3.34795602 2.36326307
vt 3.44642532 2.36326307
vt 3.54489461 2.36326307
vt 3.64336391 2.36326307
vt 3.7418332 2.36326307
vt 3.84030249 2.36326307
vt 3.93877179 2.36326307
f 1/1 42/42 2/2
f 2/2 42/42 43/43
f 2/2 43/43 3/3
f 3/3 43/43 44/44
f 3/3 44/44 4/4
f 4/4 44/44 45/45
f 4/4 45/45 5/5
f 5/5 45/45 46/46
f 5/5 46/46 6/6
f 6/6 46/46 47/47
f 6/6 47/47 7/7
f 7/7 47/47 48/48
f 7/7 48/48 8/8
f 8/8 48/48 49/49
f 8/8 49/49 9/9
f 9/9 49/49 50/50
f 9/9 50/50 10/10
f 10/10 50/50 51/51
f 10/10 51/51 11/11
f 11/11 51/51 52/52
f 11/11 52/52 12/12
f 12/12 52/52 53/53
f 12/12 53/53 13/13
f 13/13 53/53 54/54
f 13/13 54/54 14/14
f 14/14 54/54 55/55
f 14/14 55/55 15/15
f 15/15 55/55 56/56
f 15/15 56/56 16/16
f 16/16 56/56 57/57
f 16/16 57/57 17/17
f 17/17 57/57 58/58
f 17/17 58/58 18/18
f 18/18 58/58 59/59
f 18/18 59/59 19/19
f 19/19 59/59 60/60
f 19/19 60/60 20/20
f 20/20 60/60 61/61
f 20/20 61/61 21/21
f 21/21 61/61 62/62
f 21/21 62/62 22/22
f 22/22 62/62 63/63
f 22/22 63/63 23/23
f 23/23 63/63 64/64
f 23/23 64/64 24/24
f 24/24 64/64 65/65
f 24/24 65/65 25/25
f 25/25 65/65 66/66
f 25/25 66/66 26/26
f 26/26 66/66 67/67
f 26/26 67/67 27/27
f 27/27 67/67 68/68
f 27/27 68/68 28/28
f 28/28 68/68 69/69
f 28/28 69/69 29/29
f 29/29 69/69 70/70
f 29/29 70/70 30/30
f 30/30 70/70 71/71
f 30/30 71/71 31/31
f 31/31 71/71 72/72
f 31/31 72/72 32/32
f 32/32 72/72 73/73
f 32/32 73/73 33/33
f 33/33 73/73 74/74
f 33/33 74/74 34/34
f 34/34 74/74 75/75
f 34/34 75/75 35/35
f 35/35 75/75 76/76
f 35/35 76/76 36/36
f 36/36 76/76 77/77
f 36/36 77/77 37/37
f 37/37 77/77 78/78
f 37/37 78/78 38/38
f 38/38 78/78 79/79
f 38/38 79/79 39/39
f 39/39 79/79 80/80
f 39/39 80/80 40/40
f 40/40 80/80 81/81
f 40/40 81/81 41/41
f 41/41 81/81 82/82
f 42/42 83/83 43/43
f 43/43 83/83 84/84
f 43/43 84/84 44/44
f 44/44 84/84 85/85
f 44/44 85/85 45/45
f 45/45 85/85 86/86
f 45/45 86/86 46/46
f 46/46 86/86 87/87
f 46/46 87/87 47/47
f 47/47 87/87 88/88
f 47/47 88/88 48/48
f 48/48 88/88 89/89
f 48/48 89/89 49/49
f 49/49 89/89 90/90
f 49/49 90/90 50/50
f 50/50 90/90 91/91
f 50/50 91/91 51/51
f 51/51 91/91 92/92
f 51/51 92/92 52/52
f 52/52 92/92 93/93
f 52/52 93/93 53/53
f 53/53 93/93 94/94
f 53/53 94/94 54/54
f 54/54 94/94 95/95
f 54/54 95/95 55/55
f 55/55 95/95 96/96
f 55/55 96/96 56/56
f 56/56 96/96 97/97
f 56/56 97/97 57/57
f 57/57 97/97 98/98
f 57/57 98/98 58/58
f 58/58 98/98 99/99
f 58/58 99/99 59/59
f 59/59 99/99 100/100
f 59/59 100/100 60/60
f 60/60 100/100 101/101
f 60/60 101/101 61/61
f 61/61 101/101 102/102
f 61/61 102/102 62/62
f 62/62 102/102 103/103
f 62/62 103/103 63/63
f 63/63 103/103 104/104
f 63/63 104/104 64/64
f 64/64 104/104 105/105
f 64/64 105/105 65/65
f 65/65 105/105 106/106
f 65/65 106/106 66/66
f 66/66 106/106 107/107
f 66/66 107/107 67/67
f 67/67 107/107 108/108
f 67/67 108/108 68/68
f 68/68 108/108 109/109
f 68/68 109/109 69/69
f 69/69 109/109 110/110
f 69/69 110/110 70/70
f 70/70 110/110 111/111
f 70/70 111/111 71/71
f 71/71 111/111 112/112
f 71/71 112/112 72/72
f 72/72 112/112 113/113
f 72/72 113/113 73/73
f 73/73 113/113 114/114
f 73/73 114/114 74/74
f 74/74 114/114 115/115
f 74/74 115/115 75/75
f 75/75 115/115 116/116
f 75/75 116/116 76/76
f 76/76 116/116 117/117
f 76/76 117/117 77/77
f 77/77 117/117 118/118
f 77/77 118/118 78/78
f 78/78 118/118 119/119
f 78/78 119/119 79/79
f 79/79 119/119 120/120
f 79/79 120/120 80/80
f 80/80 120/120 121/121
f 80/80 121/121 81/81
f 81/81 121/121 122/122
f 81/81 122/122 82/82
f 82/82 122/122 123/123
f 83/83 124/124 84/84
f 84/84 124/124 125/125
f 84/84 125/125 85/85
f 85/85 125/125 126/126
f 85/85 126/126 86/86
f 86/86 126/126 127/127
f 86/86 127/127 87/87
f 87/87 127/127 128/128
f 87/87 128/128 88/88
f 88/88 128/128 129/129
f 88/88 129/129 89/89
f 89/89 129/129 130/130
f 89/89 130/130 90/90
f 90/90 130/130 131/131
f 90/90 131/131 91/91
f 91/91 131/131 132/132
f 91/91 132/132 92/92
f 92/92 132/132 133/133
f 92/92 133/133 93/93
f 93/93 133/133 134/134
f 93/93 134/134 94/94
f 94/94 134/134 135/135
f 94/94 135/135 95/95
f 95/95 135/135 136/136
f 95/95 136/136 96/96
f 96/96 136/136 137/137
f 96/96 137/137 97/97
f 97/97 137/137 138/138
f 97/97 138/138 98/98
f 98/98 138/138 139/139
f 98/98 139/139 99/99
f 99/99 139/139 140/140
f 99/99 140/140 100/100
f 100/100 140/140 141/141
f 100/100 141/141 101/101
f 101/101 141/141 142/142
f 101/101 142/142 102/102
f 102/102 142/142 143/143
f 102/102 143/143 103/103
f 103/103 143/143 144/144
f 103/103 144/144 104/104
f 104/104 144/144 145/145
f 104/104 145/145 105/105
f 105/105 145/145 146/146
f 105/105 146/146 106/106
f 106/106 146/146 147/147
f 106/106 147/147 107/107
f 107/107 147/147 148/148
f 107/107 148/148 108/108
f 108/108 148/148 149/149
f 108/108 149/149 109/109
f 109/109 149/149 150/150
f 109/109 150/150 110/110
f 110/110 150/150 151/151
f 110/110 151/151 111/111
f 111/111 151/151 152/152
f 111/111 152/152 112/112
f 112/112 152/152 153/153
f 112/112 153/153 113/113
f 113/113 153/153 154/154
f 113/113 154/154 114/114
f 114/114 154/154 155/155
f 114/114 155/155 115/115
f 115/115 155/155 156/156
f 115/115 156/156 116/116
f 116/116 156/156 157/157
f 116/116 157/157 117/117
f 117/117 157/157 158/158
f 117/117 158/158 118/118
f 118/118 158/158 159/159
f 118/118 159/159 119/119
f 119/119 159/159 160/160
f 119/119 160/160 120/120
f 120/120 160/160 161/161
f 120/120 161/161 121/121
f 121/121 161/161 162/162
f 121/121 162/162 122/122
f 122/122 162/162 163/163
f 122/122 163/163 123/123
f 123/123 163/163 164/164
f 124/124 165/165 125/125
f 125/125 165/165 166/166
f 125/125 166/166 126/126
f 126/126 166/166 167/167
f 126/126 167/167 127/127
f 127/127 167/167 168/168
f 127/127 168/168 128/128
f 128/128 168/168 169/169
f 128/128 169/169 129/129
f 129/129 169/169 170/170
f 129/129 170/170 130/130
f 130/130 170/170 171/171
f 130/130 171/171 131/131
f 131/131 171/171 172/172
f 131/131 172/172 132/132
f 132/132 172/172 173/173
f 132/132 173/173 133/133
f 133/133 173/173 174/174
f 133/133 174/174 134/134
f 134/134 174/174 175/175
f 134/134 175/175 135/135
f 135/135 175/175 176/176
f 135/135 176/176 136/136
f 136/136 176/176 177/177
f 136/136 177/177 137/137
f 137/137 177/177 178/178
f 137/137 178/178 138/138
f 138/138 178/178 179/179
f 138/138 179/179 139/139
f 139/139 179/179 180/180
f 139/139 180/180 140/140
f 140/140 180/180 181/181
f 140/140 181/181 141/141
f 141/141 181/181 182/182
f 141/141 182/182 142/142
f 142/142 182/182 183/183
f 142/142 183/183 143/143
f 143/143 183/183 184/184
f 143/143 184/184 144/144
f 144/144 184/184 185/185
f 144/144 185/185 145/145
f 145/145 185/185 186/186
f 145/145 186/186 146/146
f 146/146 186/186 187/187
f 146/146 187/187 147/147
f 147/147 187/187 188/188
f 147/147 188/188 148/148
f 148/148 188/188 189/189
f 148/148 189/189 149/149
f 149/149 189/189 190/190
f 149/149 190/190 150/150
f 150/150 190/190 191/191
f 150/150 191/191 151/151
f 151/151 191/191 192/192
f 151/151 192/192 152/152
f 152/152 192/192 193/193
f 152/152 193/193 153/153
f 153/153 193/193 194/194
f 153/153 194/194 154/154
f 154/154 194/194 195/195
f 154/154 195/195 155/155
f 155/155 195/195 196/196
f 155/155 196/196 156/156
f 156/156 196/196 197/197
f 156/156 197/197 157/157
f 157/157 197/197 198/198
f 157/157 198/198 158/158
f 158/158 198/198 199/199
f 158/158 199/199 159/159
f 159/159 199/199 200/200
f 159/159 200/200 160/160
f 160/160 200/200 201/201
f 160/160 201/201 161/161
f 161/161 201/201 202/202
f 161/161 202/202 162/162
f 162/162 202/202 203/203
f 162/162 203/203 163/163
f 163/163 203/203 204/204
f 163/163 204/204 164/164
f 164/164 204/204 205/205
f 165/165 206/206 166/166
f 166/166 206/206 207/207
f 166/166 207/207 167/167
f 167/167 207/207 208/208
f 167/167 208/208 168/168
f 168/168 208/208 209/209
f 168/168 209/209 169/169
f 169/169 209/209 210/210
f 169/169 210/210 170/170
f 170/170 210/210 211/211
f 170/170 211/211 171/171
f 171/171 211/211 212/212
f 171/171 212/212 172/172
f 172/172 212/212 213/213
f 172/172 213/213 173/173
f 173/173 213/213 214/214
f 173/173 214/214 174/174
f 174/174 214/214 215/215
f 174/174 215/215 175/175
f 175/175 215/215 216/216
f 175/175 216/216 176/176
f 176/176 216/216 217/217
f 176/176 217/217 177/177
f 177/177 217/217 218/218
f 177/177 218/218 178/178
f 178/178 218/218 219/219
f 178/178 219/219 179/179
f 179/179 219/219 220/220
f 179/179 220/220 180/180
f 180/180 220/220 221/221
f 180/180 221/221 181/181
f 181/181 221/221 222/222
f 181/181 222/222 182/182
f 182/182 222/222 223/223
f 182/182 223/223 183/183
f 183/183 223/223 224/224
f 183/183 224/224 184/184
f 184/184 224/224 225/225
f 184/184 225/225 185/185
f 185/185 225/225 226/226
f 185/185 226/226 186/186
f 186/186 226/226 227/227
f 186/186 227/227 187/187
f 187/187 227/227 228/228
f 187/187 228/228 188/188
f 188/188 228/228 229/229
f 188/188 229/229 189/189
f 189/189 229/229 230/230
f 189/189 230/230 190/190
f 190/190 230/230 231/231
f 190/190 231/231 191/191
f 191/191 231/231 232/232
f 191/191 232/232 192/192
f 192/192 232/232 233/233
f 192/192 233/233 193/193
f 193/193 233/233 234/234
f 193/193 234/234 194/194
f 194/194 234/234 235/235
f 194/194 235/235 195/195
f 195/195 235/235 236/236
f 195/195 236/236 196/196
f 196/196 236/236 237/237
f 196/196 237/237 197/197
f 197/197 237/237 238/238
f 197/197 238/238 198/198
f 198/198 238/238 239/239
f 198/198 239/239 199/199
f 199/199 239/239 240/240
f 199/199 240/240 200/200
f 200/200 240/240 241/241
f 200/200 241/241 201/201
f 201/201 241/241 242/242
f 201/201 242/242 202/202
f 202/202 242/242 243/243
f 202/202 243/243 203/203
f 203/203 243/243 244/244
f 203/203 244/244 204/204
f 204/204 244/244 245/245
f 204/204 245/245 205/205
f 205/205 245/245 246/246
f 206/206 247/247 207/207
f 207/207 247/247 248/248
f 207/207 248/248 208/208
f 208/208 248/248 249/249
f 208/208 249/249 209/209
f 209/209 249/249 250/250
f 209/209 250/250 210/210
f 210/210 250/250 251/251
f 210/210 251/251 211/211
f 211/211 251/251 252/252
f 211/211 252/252 212/212
f 212/212 252/252 253/253
f 212/212 253/253 213/213
f 213/213 253/253 254/254
f 213/213 254/254 214/214
f 214/214 254/254 255/255
f 214/214 255/255 215/215
f 215/215 255/255 256/256
f 215/215 256/256 216/216
f 216/216 256/256 257/257
f 216/216 257/257 217/217
f 217/217 257/257 258/258
f 217/217 258/258 218/218
f 218/218 258/258 259/259
f 218/218 259/259 219/219
f 219/219 259/259 260/260
f 219/219 260/260 220/220
f 220/220 260/260 261/261
f 220/220 261/261 221/221
f 221/221 261/261 262/262
f 221/221 262/262 222/222
f 222/222 262/262 263/263
f 222/222 263/263 223/223
f 223/223 263/263 264/264
f 223/223 264/264 224/224
f 224/224 264/264 265/265
f 224/224 265/265 225/225
f 225/225 265/265 266/266
f 225/225 266/266 226/226
f 226/226 266/266 267/267
f 226/226 267/267 227/227
f 227/227 267/267 268/268
f 227/227 268/268 228/228
f 228/228 268/268 269/269
f 228/228 269/269 229/229
f 229/229 269/269 270/270
f 229/229 270/270 230/230
f 230/230 270/270 271/271
f 230/230 271/271 231/231
f 231/231 271/271 272/272
f 231/231 272/272 232/232
f 232/232 272/272 273/273
f 232/232 273/273 233/233
f 233/233 273/273 274/274
f 233/233 274/274 234/234
f 234/234 274/274 275/275
f 234/234 275/275 235/235
f 235/235 275/275 276/276
f 235/235 276/276 236/236
f 236/236 276/276 277/277
f 236/236 277/277 237/237
f 237/237 277/277 278/278
f 237/237 278/278 238/238
f 238/238 278/278 279/279
f 238/238 279/279 239/239
f 239/239 279/279 280/280
f 239/239 280/280 240/240
f 240/240 280/280 281/281
f 240/240 281/281 241/241
f 241/241 281/281 282/282
f 241/241 282/282 242/242
f 242/242 282/282 283/283
f 242/242 283/283 243/243
f 243/243 283/283 284/284
f 243/243 284/284 244/244
f 244/244 284/284 285/285
f 244/244 285/285 245/245
f 245/245 285/285 286/286
f 245/245 286/286 246/246
f 246/246 286/286 287/287
f 247/247 288/288 248/248
f 248/248 288/288 289/289
f 248/248 289/289 249/249
f 249/249 289/289 290/290
f 249/249 290/290 250/250
f 250/250 290/290 291/291
f 250/250 291/291 251/251
f 251/251 291/291 292/292
f 251/251 292/292 252/252
f 252/252 292/292 293/293
f 252/252 293/293 253/253
f 253/253 293/293 294/294
f 253/253 294/294 254/254
f 254/254 294/294 295/295
f 254/254 295/295 255/255
f 255/255 295/295 296/296
f 255/255 296/296 256/256
f 256/256 296/296 297/297
f 256/256 297/297 257/257
f 257/257 297/297 298/298
f 257/257 298/298 258/258
f 258/258 298/298 299/299
f 258/258 299/299 259/259
f 259/259 299/299 300/300
f 259/259 300/300 260/260
f 260/260 300/300 301/301
f 260/260 301/301 261/261
f 261/261 301/301 302/302
f 261/261 302/302 262/262
f 262/262 302/302 303/303
f 262/262 303/303 263/263
f 263/263 303/303 304/304
f 263/263 304/304 264/264
f 264/264 304/304 305/305
f 264/264 305/305 265/265
f 265/265 305/305 306/306
f 265/265 306/306 266/266
f 266/266 306/306 307/307
f 266/266 307/307 267/267
f 267/267 307/307 308/308
f 267/267 308/308 268/268
f 268/268 308/308 309/309
f 268/268 309/309 269/269
f 269/269 309/309 310/310
f 269/269 310/310 270/270
f 270/270 310/310 311/311
f 270/270 311/311 271/271
f 271/271 311/311 312/312
f 271/271 312/312 272/272
f 272/272 312/312 313/313
f 272/272 313/313 273/273
f 273/273 313/313 314/314
f 273/273 314/314 274/274
f 274/274 314/314 315/315
f 274/274 315/315 275/275
f 275/275 315/315 316/316
f 275/275 316/316 276/276
f 276/276 316/316 317/317
f 276/276 317/317 277/277
f 277/277 317/317 318/318
f 277/277 318/318 278/278
f 278/278 318/318 319/319
f 278/278 319/319 279/279
f 279/279 319/319 320/320
f 279/279 320/320 280/280
f 280/280 320/320 321/321
f 280/280 321/321 281/281
f 281/281 321/321 322/322
f 281/281 322/322 282/282
f 282/282 322/322 323/323
f 282/282 323/323 283/283
f 283/283 323/323 324/324
f 283/283 324/324 284/284
f 284/284 324/324 325/325
f 284/284 325/325 285/285
f 285/285 325/325 326/326
f 285/285 326/326 286/286
f 286/286 326/326 327/327
f 286/286 327/327 287/287
f 287/287 327/327 328/328
f 288/288 329/329 289/289
f 289/289 329/329 330/330
f 289/289 330/330 290/290
f 290/290 330/330 331/331
f 290/290 331/331 291/291
f 291/291 331/331 332/332
f 291/291 332/332 292/292
f 292/292 332/332 333/333
f 292/292 333/333 293/293
f 293/293 333/333 334/334
f 293/293 334/334 294/294
f 294/294 334/334 335/335
f 294/294 335/335 295/295
f 295/295 335/335 336/336
f 295/295 336/336 296/296
f 296/296 336/336 337/337
f 296/296 337/337 297/297
f 297/297 337/337 338/338
f 297/297 338/338 298/298
f 298/298 338/338 339/339
f 298/298 339/339 299/299
f 299/299 339/339 340/340
f 299/299 340/340 300/300
f 300/300 340/340 341/341
f 300/300 341/341 301/301
f 301/301 341/341 342/342
f 301/301 342/342 302/302
f 302/302 342/342 343/343
f 302/302 343/343 303/303
f 303/303 343/343 344/344
f 303/303 344/344 304/304
f 304/304 344/344 345/345
f 304/304 345/345 305/305
f 305/305 345/345 346/346
f 305/305 346/346 306/306
f 306/306 346/346 347/347
f 306/306 347/347 307/307
f 307/307 347/347 348/348
f 307/307 348/348 308/308
f 308/308 348/348 349/349
f 308/308 349/349 309/309
f 309/309 349/349 350/350
f 309/309 350/350 310/310
f 310/310 350/350 351/351
f 310/310 351/351 311/311
f 311/311 351/351 352/352
f 311/311 352/352 312/312
f 312/312 352/352 353/353
f 312/312 353/353 313/313
f 313/313 353/353 354/354
f 313/313 354/354 314/314
f 314/314 354/354 355/355
f 314/314 355/355 315/315
f 315/315 355/355 356/356
f 315/315 356/356 316/316
f 316/316 356/356 357/357
f 316/316 357/357 317/317
f 317/317 357/357 358/358
f 317/317 358/358 318/318
f 318/318 358/358 359/359
f 318/318 359/359 319/319
f 319/319 359/359 360/360
f 319/319 360/360 320/320
f 320/320 360/360 361/361
f 320/320 361/361 321/321
f 321/321 361/361 362/362
f 321/321 362/362 322/322
f 322/322 362/362 363/363
f 322/322 363/363 323/323
f 323/323 363/363 364/364
f 323/323 364/364 324/324
f 324/324 364/364 365/365
f 324/324 365/365 325/325
f 325/325 365/365 366/366
f 325/325 366/366 326/326
f 326/326 366/366 367/367
f 326/326 367/367 327/327
f 327/327 367/367 368/368
f 327/327 368/368 328/328
f 328/328 368/368 369/369
f 329/329 370/370 330/330
f 330/330 370/370 371/371
f 330/330 371/371 331/331
f 331/331 371/371 372/372
f 331/331 372/372 332/332
f 332/332 372/372 373/373
f 332/332 373/373 333/333
f 333/333 373/373 374/374
f 333/333 374/374 334/334
f 334/334 374/374 375/375
f 334/334 375/375 335/335
f 335/335 375/375 376/376
f 335/335 376/376 336/336
f 336/336 376/376 377/377
f 336/336 377/377 337/337
f 337/337 377/377 378/378
f 337/337 378/378 338/338
f 338/338 378/378 379/379
f 338/338 379/379 339/339
f 339/339 379/379 380/380
f 339/339 380/380 340/340
f 340/340 380/380 381/381
f 340/340 381/381 341/341
f 341/341 381/381 382/382
f 341/341 382/382 342/342
f 342/342 382/382 383/383
f 342/342 383/383 343/343
f 343/343 383/383 384/384
f 343/343 384/384 344/344
f 344/344 384/384 385/385
f 344/344 385/385 345/345
f 345/345 385/385 386/386
f 345/345 386/386 346/346
f 346/346 386/386 387/387
f 346/346 387/387 347/347
f 347/347 387/387 388/388
f 347/347 388/388 348/348
f 348/348 388/388 389/389
f 348/348 389/389 349/349
f 349/349 389/389 390/390
f 349/349 390/390 350/350
f 350/350 390/390 391/391
f 350/350 391/391 351/351
f 351/351 391/391 392/392
f 351/351 392/392 352/352
f 352/352 392/392 393/393
f 352/352 393/393 353/353
f 353/353 393/393 394/394
f 353/353 394/394 354/354
f 354/354 394/394 395/395
f 354/354 395/395 355/355
f 355/355 395/395 396/396
f 355/355 396/396 356/356
f 356/356 396/396 397/397
f 356/356 397/397 357/357
f 357/357 397/397 398/398
f 357/357 398/398 358/358
f 358/358 398/398 399/399
f 358/358 399/399 359/359
f 359/359 399/399 400/400
f 359/359 400/400 360/360
f 360/360 400/400 401/401
f 360/360 401/401 361/361
f 361/361 401/401 402/402
f 361/361 402/402 362/362
f 362/362 402/402 403/403
f 362/362 403/403 363/363
f 363/363 403/403 404/404
f 363/363 404/404 364/364
f 364/364 404/404 405/405
f 364/364 405/405 365/365
f 365/365 405/405 406/406
f 365/365 406/406 366/366
f 366/366 406/406 407/407
f 366/366 407/407 367/367
f 367/367 407/407 408/408
f 367/367 408/408 368/368
f 368/368 408/408 409/409
f 368/368 409/409 369/369
f 369/369 409/409 410/410
f 370/370 411/411 371/371
f 371/371 411/411 412/412
f 371/371 412/412 372/372
f 372/372 412/412 413/413
f 372/372 413/413 373/373
f 373/373 413/413 414/414
f 373/373 414/414 374/374
f 374/374 414/414 415/415
f 374/374 415/415 375/375
f 375/375 415/415 416/416
f 375/375 416/416 376/376
f 376/376 416/416 417/417
f 376/376 417/417 377/377
f 377/377 417/417 418/418
f 377/377 418/418 378/378
f 378/378 418/418 419/419
f 378/378 419/419 379/379
f 379/379 419/419 420/420
f 379/379 420/420 380/380
f 380/380 420/420 421/421
f 380/380 421/421 381/381
f 381/381 421/421 422/422
f 381/381 422/422 382/382
f 382/382 422/422 423/423
f 382/382 423/423 383/383
f 383/383 423/423 424/424
f 383/383 424/424 384/384
f 384/384 424/424 425/425
f 384/384 425/425 385/385
f 385/385 425/425 426/426
f 385/385 426/426 386/386
f 386/386 426/426 427/427
f 386/386 427/427 387/387
f 387/387 427/427 428/428
f 387/387 428/428 388/388
f 388/388 428/428 429/429
f 388/388 429/429 389/389
f 389/389 429/429 430/430
f 389/389 430/430 390/390
f 390/390 430/430 431/431
f 390/390 431/431 391/391
f 391/391 431/431 432/432
f 391/391 432/432 392/392
f 392/392 432/432 433/433
f 392/392 433/433 393/393
f 393/393 433/433 434/434
f 393/393 434/434 394/394
f 394/394 434/434 435/435
f 394/394 435/435 395/395
f 395/395 435/435 436/436
f 395/395 436/436 396/396
f 396/396 436/436 437/437
f 396/396 437/437 397/397
f 397/397 437/437 438/438
f 397/397 438/438 398/398
f 398/398 438/438 439/439
f 398/398 439/439 399/399
f 399/399 439/439 440/440
f 399/399 440/440 400/400
f 400/400 440/440 441/441
f 400/400 441/441 401/401
f 401/401 441/441 442/442
f 401/401 442/442 402/402
f 402/402 442/442 443/443
f 402/402 443/443 403/403
f 403/403 443/443 444/444
f 403/403 444/444 404/404
f 404/404 444/444 445/445
f 404/404 445/445 405/405
f 405/405 445/445 446/446
f 405/405 446/446 406/406
f 406/406 446/446 447/447
f 406/406 447/447 407/407
f 407/407 447/447 448/448
f 407/407 448/448 408/408
f 408/408 448/448 449/449
f 408/408 449/449 409/409
f 409/409 449/449 450/450
f 409/409 450/450 410/410
f 410/410 450/450 451/451
f 411/411 452/452 412/412
f 412/412 452/452 453/453
f 412/412 453/453 413/413
f 413/413 453/453 454/454
f 413/413 454/454 414/414
f 414/414 454/454 455/455
f 414/414 455/455 415/415
f 415/415 455/455 456/456
f 415/415 456/456 416/416
f 416/416 456/456 457/457
f 416/416 457/457 417/417
f 417/417 457/457 458/458
f 417/417 458/458 418/418
f 418/418 458/458 459/459
f 418/418 459/459 419/419
f 419/419 459/459 460/460
f 419/419 460/460 420/420
f 420/420 460/460 461/461
f 420/420 461/461 421/421
f 421/421 461/461 462/462
f 421/421 462/462 422/422
f 422/422 462/462 463/463
f 422/422 463/463 423/423
f 423/423 463/463 464/464
f 423/423 464/464 424/424
f 424/424 464/464 465/465
f 424/424 465/465 425/425
f 425/425 465/465 466/466
f 425/425 466/466 426/426
f 426/426 466/466 467/467
f 426/426 467/467 427/427
f 427/427 467/467 468/468
f 427/427 468/468 428/428
f 428/428 468/468 469/469
f 428/428 469/469 429/429
f 429/429 469/469 470/470
f 429/429 470/470 430/430
f 430/430 470/470 471/471
f 430/430 471/471 431/431
f 431/431 471/471 472/472
f 431/431 472/472 432/432
f 432/432 472/472 473/473
f 432/432 473/473 433/433
f 433/433 473/473 474/474
f 433/433 474/474 434/434
f 434/434 474/474 475/475
f 434/434 475/475 435/435
f 435/435 475/475 476/476
f 435/435 476/476 436/436
f 436/436 476/476 477/477
f 436/436 477/477 437/437
f 437/437 477/477 478/478
f 437/437 478/478 438/438
f 438/438 478/478 479/479
f 438/438 479/479 439/439
f 439/439 479/479 480/480
f 439/439 480/480 440/440
f 440/440 480/480 481/481
f 440/440 481/481 441/441
f 441/441 481/481 482/482
f 441/441 482/482 442/442
f 442/442 482/482 483/483
f 442/442 483/483 443/443
f 443/443 483/483 484/484
f 443/443 484/484 444/444
f 444/444 484/484 485/485
f 444/444 485/485 445/445
f 445/445 485/485 486/486
f 445/445 486/486 446/446
f 446/446 486/486 487/487
f 446/446 487/487 447/447
f 447/447 487/487 488/488
f 447/447 488/488 448/448
f 448/448 488/488 489/489
f 448/448 489/489 449/449
f 449/449 489/489 490/490
f 449/449 490/490 450/450
f 450/450 490/490 491/491
f 450/450 491/491 451/451
f 451/451 491/491 492/492
f 452/452 493/493 453/453
f 453/453 493/493 494/494
f 453/453 494/494 454/454
f 454/454 494/494 495/495
f 454/454 495/495 455/455
f 455/455 495/495 496/496
f 455/455 496/496 456/456
f 456/456 496/496 497/497
f 456/456 497/497 457/457
f 457/457 497/497 498/498
f 457/457 498/498 458/458
f 458/458 498/498 499/499
f 458/458 499/499 459/459
f 459/459 499/499 500/500
f 459/459 500/500 460/460
f 460/460 500/500 501/501
f 460/460 501/501 461/461
f 461/461 501/501 502/502
f 461/461 502/502 462/462
f 462/462 502/502 503/503
f 462/462 503/503 463/463
f 463/463 503/503 504/504
f 463/463 504/504 464/464
f 464/464 504/504 505/505
f 464/464 505/505 465/465
f 465/465 505/505 506/506
f 465/465 506/506 466/466
f 466/466 506/506 507/507
f 466/466 507/507 467/467
f 467/467 507/507 508/508
f 467/467 508/508 468/468
f 468/468 508/508 509/509
f 468/468 509/509 469/469
f 469/469 509/509 510/510
f 469/469 510/510 470/470
f 470/470 510/510 511/511
f 470/470 511/511 471/471
f 471/471 511/511 512/512
f 471/471 512/512 472/472
f 472/472 512/512 513/513
f 472/472 513/513 473/473
f 473/473 513/513 514/514
f 473/473 514/514 474/474
f 474/474 514/514 515/515
f 474/474 515/515 475/475
f 475/475 515/515 516/516
f 475/475 516/516 476/476
f 476/476 516/516 517/517
f 476/476 517/517 477/477
f 477/477 517/517 518/518
f 477/477 518/518 478/478
f 478/478 518/518 519/519
f 478/478 519/519 479/479
f 479/479 519/519 520/520
f 479/479 520/520 480/480
f 480/480 520/520 521/521
f 480/480 521/521 481/481
f 481/481 521/521 522/522
f 481/481 522/522 482/482
f 482/482 522/522 523/523
f 482/482 523/523 483/483
f 483/483 523/523 524/524
f 483/483 524/524 484/484
f 484/484 524/524 525/525
f 484/484 525/525 485/485
f 485/485 525/525 526/526
f 485/485 526/526 486/486
f 486/486 526/526 527/527
f 486/486 527/527 487/487
f 487/487 527/527 528/528
f 487/487 528/528 488/488
f 488/488 528/528 529/529
f 488/488 529/529 489/489
f 489/489 529/529 530/530
f 489/489 530/530 490/490
f 490/490 530/530 531/531
f 490/490 531/531 491/491
f 491/491 531/531 532/532
f 491/491 532/532 492/492
f 492/492 532/532 533/533
