# Nyxara A2 north ridge. Planet-local XYZ. Identity TRS under PlanetNyxara. No collider.
o NyxaraA2NorthRidge
v 24.2493039 24.8983856 66.624415
v 25.0413775 25.5161509 66.095586
v 25.8218023 26.131973 65.552464
v 26.6123128 26.5925361 65.0491572
v 27.3465254 27.3576003 64.4243765
v 28.0656072 28.1194091 63.7839443
v 28.8211698 28.5748941 63.2422851
v 29.5117923 29.3313062 62.5739532
v 30.2435273 29.7834839 62.0084202
v 30.9045255 30.5342686 61.313455
v 31.611489 30.9830012 60.7251054
v 32.2417543 31.7279301 60.0048228
v 32.9230493 32.1730809 59.3947533
v 33.5215315 32.9119269 58.6505159
v 34.1763098 33.3533603 58.0198607
v 34.7420191 34.0858984 57.2530756
v 35.3694825 34.5234799 56.6030041
v 35.9014915 35.249487 55.8151198
v 36.5008935 35.6830834 55.1468345
v 36.9983388 36.4023382 54.3393386
v 37.5689862 36.8318175 53.6540728
v 38.03107 37.544101 52.8284887
v 38.5723239 37.9693322 52.127504
v 38.8442672 39.0952811 51.0828046
v 39.5095926 39.0952811 50.5699724
v 40.1681482 39.0952811 50.0484754
v 40.8198212 39.0952811 49.5184028
v 41.4644999 39.0952811 48.9798455
v 42.1020739 39.0952811 48.4328957
v 42.732434 39.0952811 47.8776473
v 43.355472 39.0952811 47.3141952
v 43.9710813 39.0952811 46.7426361
v 44.5791564 39.0952811 46.1630678
v 45.1194383 39.2351944 45.5149078
v 45.6501831 39.3749209 44.86031
v 46.2334754 39.3749209 44.2589243
v 46.8088459 39.3749209 43.649955
v 47.376196 39.3749209 43.0335065
v 47.9354283 39.3749209 42.4096845
v 48.4864472 39.3749209 41.7785958
v 49.0291582 39.3749209 41.1403485
v 24.1586294 25.8743562 66.3752887
v 24.9444358 26.4897707 65.8397129
v 25.7184096 27.103168 65.2899864
v 26.5030887 27.561864 64.7821779
v 27.2296912 28.3237239 64.1491325
v 27.940943 29.0822136 63.5006235
v 28.6901973 29.5356521 62.9548922
v 29.3726067 30.2885619 62.2788376
v 30.0977473 30.7385835 61.7095269
v 30.7501653 31.485684 61.0072099
v 31.4502615 31.9321516 60.4153902
v 32.0715959 32.6732153 59.6881426
v 32.7457646 33.1159929 59.0749231
v 33.3349826 33.8507939 58.3241229
v 33.9823898 34.2897467 57.6906498
v 34.5385194 35.0180614 56.9177185
v 35.158382 35.4530556 56.2651726
v 35.6805144 36.1746619 55.4715725
v 36.2721012 36.6055651 54.801167
v 36.759392 37.3202433 53.9883984
v 37.3220257 37.7469242 53.3013766
v 37.7736969 38.4544566 52.470975
v 38.3067547 38.8767852 51.7686078
v 38.5644779 39.9948039 50.714863
v 39.2250111 39.9948039 50.2057247
v 39.8788232 39.9948039 49.6879839
v 40.5258023 39.9948039 49.1617294
v 41.1658375 39.9948039 48.6270512
v 41.7988192 39.9948039 48.084041
v 42.4246388 39.9948039 47.5327919
v 43.0431892 39.9948039 46.9733983
v 43.6543644 39.9948039 46.405956
v 44.2580596 39.9948039 45.8305623
v 44.7926358 40.1337066 45.1852409
v 45.317696 40.2724183 44.5335759
v 45.8967401 40.2724183 43.9365702
v 46.4679199 40.2724183 43.3320363
v 47.0311377 40.2724183 42.7200777
v 47.586297 40.2724183 42.1007992
v 48.1333026 40.2724183 41.4743069
v 48.6720608 40.2724183 40.8407083
v 23.9696024 27.335943 65.8559413
v 24.7441156 27.9464789 65.3109767
v 25.5065345 28.5548866 64.7521102
v 26.2805982 29.0097679 64.2383386
v 26.9939437 29.7651322 63.593746
v 27.6916279 30.5169547 62.9340118
v 28.4295983 30.966311 62.3830598
v 29.097904 31.7122808 61.6963844
v 29.8113652 32.1580571 61.1223567
v 30.4491702 32.8979471 60.4100467
v 31.1372142 33.3400076 59.8140319
v 31.7434542 34.0735922 59.0774412
v 32.4052209 34.5118025 58.460566
v 32.9788919 35.2388583 57.7010934
v 33.6135713 35.6730846 57.0645203
v 34.1537312 36.3933902 56.283607
v 34.7605648 36.8235004 55.628532
v 35.2663351 37.5368364 54.8276586
v 35.8446171 37.9626995 54.155309
v 36.3151849 38.6688485 53.3359928
v 36.8642638 39.0903347 52.6476249
v 37.298883 39.7890817 51.811417
v 37.8181627 40.2060626 51.1083137
v 38.0533183 41.3095434 50.042654
v 38.7050963 41.3095434 49.5402641
v 39.3502424 41.3095434 49.0293859
v 39.988646 41.3095434 48.5101066
v 40.6201977 41.3095434 47.9825154
v 41.2447894 41.3095434 47.4467027
v 41.862314 41.3095434 46.9027602
v 42.4726657 41.3095434 46.3507812
v 43.07574 41.3095434 45.7908602
v 43.6714334 41.3095434 45.2230932
v 44.1960905 41.4466006 44.5834668
v 44.7112833 41.5834605 43.9376557
v 45.2825789 41.5834605 43.3486388
v 45.8461156 41.5834605 42.7521944
v 46.4017968 41.5834605 42.1484246
v 46.9495272 41.5834605 41.5374329
v 47.4892132 41.5834605 40.919324
v 48.020762 41.5834605 40.2942037
v 23.7293073 29.072953 65.1957361
v 24.4898384 29.6772918 64.6398236
v 25.2379684 30.2793705 64.0703153
v 25.9988629 30.7294188 63.5496859
v 26.6959063 31.4765645 62.8916139
v 27.3769251 32.2199649 62.2187951
v 28.1009452 32.6641705 61.6618964
v 28.7519592 33.4013944 60.9628765
v 29.4510101 33.8418267 60.3835192
v 30.0709301 34.5726496 59.659632
v 30.744131 35.0091743 59.0589261
v 31.3319267 35.7333736 58.3115512
v 31.9784459 36.1658578 57.6906436
v 32.5331485 36.8832129 56.9212042
v 33.1522052 37.3115248 56.2812761
v 33.6729086 38.0218172 55.491236
v 34.2637743 38.4458264 54.833501
v 34.7496373 39.1488396 54.024362
v 35.3116369 39.5684169 53.3500638
v 35.7618846 40.263937 52.5233625
v 36.2943981 40.6789546 51.8337723
v 36.7083233 41.3667696 50.9910777
v 37.2107864 41.7771011 50.2874917
v 37.4187478 42.8625218 49.2081514
v 38.0596568 42.8625218 48.7141393
v 38.6940446 42.8625218 48.2117803
v 39.3218023 42.8625218 47.7011605
v 39.9428224 42.8625218 47.1823674
v 40.5569985 42.8625218 46.6554897
v 41.1642253 42.8625218 46.1206179
v 41.7643989 42.8625218 45.5778436
v 42.3574164 42.8625218 45.0272598
v 42.9431762 42.8625218 44.4689607
v 43.4556408 42.9972881 43.8365272
v 43.9587087 43.1318498 43.1981028
v 44.5203884 43.1318498 42.6190002
v 45.0744397 43.1318498 42.032595
v 45.6207677 43.1318498 41.4389878
v 46.1592789 43.1318498 40.8382802
v 46.6898809 43.1318498 40.2305752
v 47.2124828 43.1318498 39.6159769
v 23.4411669 31.0068898 64.4040768
v 24.1853923 31.6038031 63.8362519
v 30.3511452 39.2206229 77.0508709
v 33.7578367 42.9400078 82.515144
v 34.7443242 44.0295476 81.8524984
v 35.6172025 44.9968898 80.9462502
v 27.710086 34.5513656 60.8042342
v 28.3411497 35.2781961 60.0918359
v 38.2831862 47.1060349 78.4921636
v 39.0737212 48.0558418 77.5208424
v 39.9390013 48.6229884 76.7221076
v 40.6863641 49.5635923 75.7210058
v 31.4742427 38.0011385 56.7810368
v 32.0071788 38.70704 56.0009481
v 32.6081879 39.1283755 55.357718
v 43.6690257 52.5333459 71.9643272
v 44.4241122 53.0831571 71.0934407
v 45.0349489 53.9944444 70.0146697
v 34.6853935 41.346753 52.4039132
v 35.1124307 42.0297906 51.5695117
v 46.9920886 55.9765096 67.1116577
v 47.5069383 56.8668597 65.9913002
v 48.1442446 57.3978285 65.0632125
v 48.3779682 58.8016634 63.6202578
v 49.206587 58.8016634 62.9815592
v 37.926572 44.5790389 47.2555294
v 38.5418785 44.5790389 46.7550374
v 51.6412949 58.8016634 61.0011612
v 52.4353512 58.8016634 60.3199714
v 53.2204229 58.8016634 59.6284461
v 40.9360278 44.5790389 44.6738351
v 41.5172832 44.5790389 44.1341718
v 55.5203937 58.8016634 57.4930507
v 56.1777493 58.9758921 56.6701443
v 56.8228197 59.1498401 55.8396294
v 57.5488697 59.1498401 55.0910577
v 58.265059 59.1498401 54.3330465
v 44.7076181 44.8430004 40.609541
v 45.2353503 44.8430004 40.0208573
v 49.141078 48.1612372 42.3426618
v 46.2674732 44.8430004 38.8230197
v 23.1053817 33.0913777 63.4815145
v 25.5945548 36.1718287 67.5556726
v 29.8966758 41.7384708 75.8971331
v 33.2440461 45.6502881 81.2592726
v 34.2011434 46.7322068 80.5728445
v 35.045478 47.6842242 79.6469074
v 35.9548268 48.2527184 78.8956667
v 36.7577361 49.1956034 77.9375524
v 37.6328012 49.7585317 77.1586769
v 38.3929539 50.6919971 76.1702248
v 39.2326614 51.2491881 75.3652414
v 39.9488079 52.1729496 74.348347
v 40.7521514 52.7242336 73.5188273
v 41.4231258 53.6380096 72.4754386
v 42.1891686 54.1832187 71.6229956
v 42.8138912 55.086731 70.555109
v 43.5417677 55.625699 69.6813942
v 44.1192468 56.5186725 68.5910515
v 44.8081644 57.0512353 67.6977517
v 45.3374986 57.9333978 66.5870353
v 45.9867389 58.4593931 65.6758694
v 46.4671182 59.3304761 64.5468989
v 47.0760386 59.8497437 63.6196148
v 47.2652214 61.2218635 62.1569215
v 48.0747811 61.2218635 61.5329138
v 48.8761034 61.2218635 60.8983627
v 49.669051 61.2218635 60.2533769
v 50.453488 61.2218635 59.5980671
v 51.2292802 61.2218635 58.9325454
v 51.9962944 61.2218635 58.256926
v 52.7543994 61.2218635 57.5713245
v 53.5034651 61.2218635 56.8758585
v 54.2433633 61.2218635 56.170647
v 54.8798045 61.3920757 55.360823
v 55.5040909 61.5619958 54.5437182
v 56.2132909 61.5619958 53.8125192
v 56.9128591 61.5619958 53.0720997
v 57.4462057 61.394771 52.1804594
v 53.8222174 56.8506186 47.6178755
v 48.000625 50.125273 41.3599846
v 45.1937101 46.6717171 37.9220255
v 22.7210118 35.2933042 62.425467
v 25.1596368 38.5260678 66.4077262
v 29.3778842 44.3963285 74.580104
v 32.6581166 48.5105257 79.82707
v 33.5826824 49.5831389 79.1158417
v 34.3955116 50.5177211 78.1697465
v 35.2779045 51.0755921 77.4102963
v 36.0483353 52.0005034 76.4334076
v 36.8957406 52.5524872 75.6474787
v 37.622503 53.4674459 74.6416782
v 38.4338977 54.0133742 73.8308305
v 39.1158049 54.9181017 72.7980531
v 39.8902349 55.4578083 71.9638887
v 40.5261859 56.3520289 70.9061191
v 41.2627679 56.8853494 70.0502793
v 41.8517491 57.7687907 68.969548
v 42.5496725 58.2955627 68.0937102
v 43.09076 59.1679556 66.9920896
v 43.7492881 59.6880185 66.0979641
v 44.2416491 60.5490973 64.9775648
v 44.8601205 61.0622928 64.0668917
v 45.3030153 61.9117952 62.9298581
v 45.8808452 62.417967 62.0044036
v 46.0220429 63.754628 60.5220588
v 46.8103094 63.754628 59.9144638
v 47.5905551 63.754628 59.2966027
v 48.3626465 63.754628 58.6685815
v 49.1264511 63.754628 58.0305078
v 49.8818382 63.754628 57.3824908
v 50.6286783 63.754628 56.7246416
v 51.3668435 63.754628 56.0570729
v 52.0962071 63.754628 55.3798992
v 52.8166444 63.754628 54.6932364
v 53.4299824 63.9203534 53.8982933
v 54.0313184 64.0857746 53.0964287
v 54.7217002 64.0857746 52.3846317
v 55.4027057 64.0857746 51.6638589
v 55.9219002 63.9116943 50.7958778
v 52.3940725 59.1812511 46.3543597
v 46.7269532 52.180195 40.2625188
v 43.9945183 48.5850582 36.915784
v 22.2866686 37.5863363 61.2321187
v 24.6688216 40.9767809 65.1122415
v 28.7931633 47.1620385 73.0957034
v 31.9983409 51.4859624 78.2143634
v 32.8873235 52.547444 77.4776788
v 33.6657893 53.4624373 76.5113263
v 34.5185603 54.0083868 75.7440676
v 35.253646 54.9131498 74.7484251
v 36.0707244 55.4528781 73.9559448
v 36.7612263 56.3471352 72.9329365
v 37.5416442 56.8804779 72.1168275
v 38.1864438 57.7639566 71.0684279
v 38.9293036 58.2907514 70.2303228
v 39.5273697 59.1631827 69.1585533
v 40.2318462 59.6832689 68.3001214
v 40.7822365 60.544387 67.2070458
v 41.447578 61.0576064 66.3299902
v 41.9494416 61.907149 65.2177114
v 42.5749715 62.4133451 64.3237653
v 43.0275497 63.2510534 63.1944209
v 43.6126678 63.7500721 62.2853445
v 44.015296 64.5756909 61.1411031
v 44.5594794 65.0673802 60.2186803
v 44.6496328 66.3648682 58.7172478
v 45.4143925 66.3648682 58.1277717
v 46.1713708 66.3648682 57.5283357
v 46.9204378 66.3648682 56.9190426
v 47.6614653 66.3648682 56.2999966
v 48.3943262 66.3648682 55.671304
v 49.118895 66.3648682 55.0330723
v 49.8350475 66.3648682 54.385411
v 50.5426611 66.3648682 53.7284311
v 51.2416144 66.3648682 53.062245
v 51.829733 66.5256408 52.2840178
v 52.4060257 66.6860968 51.4992581
v 53.0756404 66.6860968 50.8088723
v 53.7361609 66.6860968 50.1097807
v 54.2397378 66.5049531 49.267909
v 50.8180291 61.582569 44.9599943
v 45.3213799 54.2974406 39.0513994
v 42.6711382 50.5564287 35.8053363
v 21.8008191 39.9480082 59.8972583
v 24.1204785 43.4997987 63.6649146
v 28.1406876 50.0081442 71.4392973
v 31.262756 54.5469125 76.4163544
v 32.1131624 55.5953003 75.6538697
v 32.8544793 56.4885 74.6674841
v 33.6749894 57.0212002 73.8930202
v 34.3719507 57.9035947 72.8789637
v 35.1560737 58.4297309 72.080633
v 35.8075473 59.3010514 71.0408719
v 36.5543744 59.8204633 70.2202998
v 37.1593148 60.6804444 69.1568479
v 37.8680092 61.1929738 68.315697
v 38.42546 62.0413536 67.2306112
v 39.0952584 62.5468444 66.3705782
v 39.6043538 63.3833644 65.2659552
v 40.2345675 63.8816626 64.3887676
v 40.6945341 64.706068 63.2667392
v 41.2845507 65.1970218 62.3741521
v 41.6947087 66.0090615 61.2368818
v 42.2439931 66.4925213 60.3306745
v 42.6037579 67.291948 59.180353
v 43.111853 67.7677666 58.2623254
v 43.1482204 69.0223692 56.7427903
v 43.887264 69.0223692 56.1731363
v 44.6187877 69.0223692 55.5938572
v 45.3426662 69.0223692 55.0050525
v 46.0587754 69.0223692 54.4068229
v 46.7669928 69.0223692 53.799271
v 47.4671968 69.0223692 53.1825009
v 48.1592676 69.0223692 52.5566182
v 48.8430866 69.0223692 51.9217302
v 49.5185365 69.0223692 51.2779457
v 50.0793694 69.177724 50.5183124
v 50.6285772 69.3327495 49.7525642
v 51.2754806 69.3327495 49.0855942
v 51.9135983 69.3327495 48.4102136
v 52.4000954 69.1444165 47.5968955
v 49.0944404 64.0266717 43.4350918
v 43.7842204 56.4524095 37.726898
v 41.2238666 52.5629235 34.5909313
v 21.2619466 42.3582023 58.4167181
v 23.5129867 46.0734742 62.0614675
v 27.4186341 52.9100498 69.6062577
v 30.4493938 57.6667795 74.4282323
v 31.2582767 58.6999838 73.639885
v 31.9597175 59.5691328 72.6339831
v 32.745345 60.0872265 71.8531017
v 33.4014747 60.9449852 70.8212601
v 34.1500416 61.456166 70.0179615
v 34.7598043 62.3022732 68.9621881
v 35.4704651 62.8063854 68.1381294
v 36.0328933 63.6405832 67.0604756
v 36.7048756 64.1374734 66.2173485
v 37.2190925 64.9595078 65.1199058
v 37.8516988 65.4490244 64.259433
v 38.3169194 66.258645 63.1443289
v 38.909528 66.7406391 62.2682612
v 39.3250612 67.5375992 61.1376552
v 39.8771276 68.0119239 60.2477678
v 40.2423771 68.7959808 59.103847
v 40.7534348 69.2624916 58.2019367
v 41.0679002 70.0334065 57.046912
v 41.5375617 70.4919613 56.134793
v 41.5176816 71.6999585 54.5985229
v 42.2287972 71.6999585 54.0503956
v 42.9326772 71.6999585 53.4930071
v 43.6292009 71.6999585 52.9264529
v 44.3182489 71.6999585 52.3508299
v 44.9997033 71.6999585 51.766237
v 45.6734471 71.6999585 51.1727741
v 46.3393651 71.6999585 50.5705431
v 46.997343 71.6999585 49.959647
v 47.6472682 71.6999585 49.3401906
v 48.178789 71.8494299 48.6010735
v 48.6989109 71.9985594 47.8562864
v 49.3211582 71.9985594 47.2147374
v 49.9349545 71.9985594 46.5650984
v 50.4029092 71.8029851 45.7827793
v 47.2232465 66.4884656 41.7795993
v 42.1154211 58.6229767 36.2889685
v 39.6526531 54.5839419 33.2725266
v 20.6686451 44.7982785 56.7866356
v 21.2708688 45.3239267 56.1434986
v 21.8581455 45.8461232 55.4901351
v 22.4685153 46.2354816 54.9203668
v 22.9870346 46.8800027 54.1540599
v 23.4865572 47.5189456 53.3772617
v 24.0537407 47.8996021 52.7811168
v 24.5182121 48.529462 51.9860483
v 25.0568118 48.9046109 51.3740775
v 25.4854927 49.5251958 50.562291
v 25.9949184 49.8947228 49.9357736
v 26.3871379 50.5058437 49.1088518
v 26.8668559 50.8696363 48.469091
v 27.222013 51.4711071 47.6286444
v 27.671547 51.8290544 46.9769649
v 27.9891115 52.4206919 46.1246282
v 28.4080438 52.7726849 45.4623734
v 28.6875572 53.3543089 44.5998028
v 29.0755292 53.7002403 43.9283328
v 29.3166058 54.2716736 43.0572026
v 29.6733185 54.6114381 42.3778907
v 29.8756462 55.1725066 41.4998905
v 30.2008611 55.5060007 40.8141213
v 30.141477 56.3836557 39.6380544
v 30.6577408 56.3836557 39.2401188
v 31.1687516 56.3836557 38.8354596
v 31.6744217 56.3836557 38.4241461
v 32.1746646 56.3836557 38.0062488
v 32.6693946 56.3836557 37.5818394
v 33.1585268 56.3836557 37.1509905
v 33.6419775 56.3836557 36.713776
v 34.1196638 56.3836557 36.2702708
v 34.5915038 56.3836557 35.8205508
v 34.9707325 56.4921604 35.2772491
v 35.3415114 56.6003962 34.7300065
v 35.7930853 56.6003962 34.264425
v 36.2385263 56.6003962 33.7929725
v 36.677758 56.6003962 33.3157297
v 37.1107052 56.6003962 32.8327784
v 37.5372936 56.6003962 32.3442015
v 37.9574502 56.6003962 31.8500825
v 20.0196828 47.2505452 55.0036263
v 20.5910671 47.7595419 54.3491926
v 21.1471523 48.2649015 53.6851736
v 21.7279782 48.6415112 53.110253
v 22.212658 49.2645559 52.3297428
v 22.677939 49.8817385 51.539537
v 23.2147416 50.2492038 50.9401013
v 23.6443053 50.8568548 50.1331006
v 24.1520672 51.2185453 49.5190761
v 24.5452388 51.8164796 48.6968615
v 25.0234235 52.1722851 48.0695493
v 25.3795983 52.7603205 47.2337294
v 25.8277265 53.1101328 46.594452
v 26.1463703 53.6880902 45.7466601
v 26.5640213 54.0318026 45.0967593
v 26.8446719 54.599506 44.2386501
v 27.2314839 54.9370138 43.579484
v 27.4737515 55.4942902 42.7127306
v 27.8294226 55.8254907 42.0456711
v 28.0329911 56.3721703 41.1719619
v 28.3572795 56.6969625 40.4983921
v 28.5219066 57.2328789 39.6194276
v 28.8146313 57.5511639 38.9407393
v 28.7094543 58.3878347 37.7548489
v 29.2011903 58.3878347 37.3758192
v 29.687923 58.3878347 36.9903854
v 30.1695687 58.3878347 36.5986134
v 30.6460451 58.3878347 36.2005705
v 31.1172704 58.3878347 35.7963248
v 31.5831639 58.3878347 35.3859455
v 32.0436458 58.3878347 34.9695031
v 32.4986372 58.3878347 34.5470688
v 32.9480601 58.3878347 34.118715
v 33.302079 58.4911732 33.5939699
v 33.6478608 58.5942333 33.0656607
v 34.0777942 58.5942333 32.622391
v 34.5018886 58.5942333 32.1735316
v 34.9200712 58.5942333 31.7191595
v 35.3322705 58.5942333 31.2593524
v 35.7384158 58.5942333 30.7941892
v 36.1384375 58.5942333 30.3237496
v 19.3140472 49.6979242 53.0649087
v 19.8525762 50.1888236 52.3999792
v 20.3754698 50.675901 51.7261434
v 20.9247609 51.0386785 51.1469286
v 21.3736427 51.6384415 50.3531467
v 21.8027453 52.23206 49.5505079
v 22.3072275 52.5852523 48.9487432
v 22.6999886 53.1688931 48.1308627
v 23.1750102 53.5160452 47.5158124
v 23.5308233 54.0895305 46.6842979
v 23.975904 54.4305366 46.0572832
v 24.2942334 54.9936917 45.213767
v 24.7089513 55.328448 44.5761281
v 24.9893328 55.8811012 43.7222643
v 25.373325 56.2095057 43.0753581
v 25.6153674 56.7514889 42.212819
v 25.9683306 57.0734415 41.5580161
v 26.1717159 57.6045895 40.6884896
v 26.4934073 57.9199922 40.0271721
v 26.6578915 58.4401431 39.1523577
v 26.9481287 58.7488998 38.4859163
v 27.0735424 59.2578954 37.6075227
v 27.3322042 59.559912 36.937354
v 27.1799403 60.3527817 35.743436
v 27.6454788 60.3527817 35.3845993
v 28.1062805 60.3527817 35.0196997
v 28.5622662 60.3527817 34.6487996
v 29.013358 60.3527817 34.2719627
v 29.4594785 60.3527817 33.8892534
v 29.9005513 60.3527817 33.5007373
v 30.3365007 60.3527817 33.1064811
v 30.7672522 60.3527817 32.7065523
v 31.1927318 60.3527817 32.3010193
v 31.5200944 60.4506027 31.7963663
v 31.8394542 60.5481359 31.2885445
v 32.2462809 60.5481359 30.8690984
v 32.6475822 60.5481359 30.444363
v 33.0432896 60.5481359 30.0144111
v 33.4333353 60.5481359 29.5793164
v 33.8176522 60.5481359 29.1391534
v 34.1961747 60.5481359 28.6939976
vt 0 0
vt 0.0984692947 0
vt 0.196938589 0
vt 0.295407884 0
vt 0.393877179 0
vt 0.492346474 0
vt 0.590815768 0
vt 0.689285063 0
vt 0.787754358 0
vt 0.886223653 0
vt 0.984692947 0
vt 1.08316224 0
vt 1.18163154 0
vt 1.28010083 0
vt 1.37857013 0
vt 1.47703942 0
vt 1.57550872 0
vt 1.67397801 0
vt 1.77244731 0
vt 1.8709166 0
vt 1.96938589 0
vt 2.06785519 0
vt 2.16632448 0
vt 2.26479378 0
vt 2.36326307 0
vt 2.46173237 0
vt 2.56020166 0
vt 2.65867096 0
vt 2.75714025 0
vt 2.85560955 0
vt 2.95407884 0
vt 3.05254814 0
vt 3.15101743 0
vt 3.24948673 0
vt 3.34795602 0
vt 3.44642532 0
vt 3.54489461 0
vt 3.64336391 0
vt 3.7418332 0
vt 3.84030249 0
vt 3.93877179 0
vt 0 0.100871287
vt 0.0984692947 0.100871287
vt 0.196938589 0.100871287
vt 0.295407884 0.100871287
vt 0.393877179 0.100871287
vt 0.492346474 0.100871287
vt 0.590815768 0.100871287
vt 0.689285063 0.100871287
vt 0.787754358 0.100871287
vt 0.886223653 0.100871287
vt 0.984692947 0.100871287
vt 1.08316224 0.100871287
vt 1.18163154 0.100871287
vt 1.28010083 0.100871287
vt 1.37857013 0.100871287
vt 1.47703942 0.100871287
vt 1.57550872 0.100871287
vt 1.67397801 0.100871287
vt 1.77244731 0.100871287
vt 1.8709166 0.100871287
vt 1.96938589 0.100871287
vt 2.06785519 0.100871287
vt 2.16632448 0.100871287
vt 2.26479378 0.100871287
vt 2.36326307 0.100871287
vt 2.46173237 0.100871287
vt 2.56020166 0.100871287
vt 2.65867096 0.100871287
vt 2.75714025 0.100871287
vt 2.85560955 0.100871287
vt 2.95407884 0.100871287
vt 3.05254814 0.100871287
vt 3.15101743 0.100871287
vt 3.24948673 0.100871287
vt 3.34795602 0.100871287
vt 3.44642532 0.100871287
vt 3.54489461 0.100871287
vt 3.64336391 0.100871287
vt 3.7418332 0.100871287
vt 3.84030249 0.100871287
vt 3.93877179 0.100871287
vt 0 0.257133142
vt 0.0984692947 0.257133142
vt 0.196938589 0.257133142
vt 0.295407884 0.257133142
vt 0.393877179 0.257133142
vt 0.492346474 0.257133142
vt 0.590815768 0.257133142
vt 0.689285063 0.257133142
vt 0.787754358 0.257133142
vt 0.886223653 0.257133142
vt 0.984692947 0.257133142
vt 1.08316224 0.257133142
vt 1.18163154 0.257133142
vt 1.28010083 0.257133142
vt 1.37857013 0.257133142
vt 1.47703942 0.257133142
vt 1.57550872 0.257133142
vt 1.67397801 0.257133142
vt 1.77244731 0.257133142
vt 1.8709166 0.257133142
vt 1.96938589 0.257133142
vt 2.06785519 0.257133142
vt 2.16632448 0.257133142
vt 2.26479378 0.257133142
vt 2.36326307 0.257133142
vt 2.46173237 0.257133142
vt 2.56020166 0.257133142
vt 2.65867096 0.257133142
vt 2.75714025 0.257133142
vt 2.85560955 0.257133142
vt 2.95407884 0.257133142
vt 3.05254814 0.257133142
vt 3.15101743 0.257133142
vt 3.24948673 0.257133142
vt 3.34795602 0.257133142
vt 3.44642532 0.257133142
vt 3.54489461 0.257133142
vt 3.64336391 0.257133142
vt 3.7418332 0.257133142
vt 3.84030249 0.257133142
vt 3.93877179 0.257133142
vt 0 0.444509714
vt 0.0984692947 0.444509714
vt 0.196938589 0.444509714
vt 0.295407884 0.444509714
vt 0.393877179 0.444509714
vt 0.492346474 0.444509714
vt 0.590815768 0.444509714
vt 0.689285063 0.444509714
vt 0.787754358 0.444509714
vt 0.886223653 0.444509714
vt 0.984692947 0.444509714
vt 1.08316224 0.444509714
vt 1.18163154 0.444509714
vt 1.28010083 0.444509714
vt 1.37857013 0.444509714
vt 1.47703942 0.444509714
vt 1.57550872 0.444509714
vt 1.67397801 0.444509714
vt 1.77244731 0.444509714
vt 1.8709166 0.444509714
vt 1.96938589 0.444509714
vt 2.06785519 0.444509714
vt 2.16632448 0.444509714
vt 2.26479378 0.444509714
vt 2.36326307 0.444509714
vt 2.46173237 0.444509714
vt 2.56020166 0.444509714
vt 2.65867096 0.444509714
vt 2.75714025 0.444509714
vt 2.85560955 0.444509714
vt 2.95407884 0.444509714
vt 3.05254814 0.444509714
vt 3.15101743 0.444509714
vt 3.24948673 0.444509714
vt 3.34795602 0.444509714
vt 3.44642532 0.444509714
vt 3.54489461 0.444509714
vt 3.64336391 0.444509714
vt 3.7418332 0.444509714
vt 3.84030249 0.444509714
vt 3.93877179 0.444509714
vt 0 0.655463558
vt 0.0984692947 0.655463558
vt 0.196938589 0.655463558
vt 0.295407884 0.655463558
vt 0.393877179 0.655463558
vt 0.492346474 0.655463558
vt 0.590815768 0.655463558
vt 0.689285063 0.655463558
vt 0.787754358 0.655463558
vt 0.886223653 0.655463558
vt 0.984692947 0.655463558
vt 1.08316224 0.655463558
vt 1.18163154 0.655463558
vt 1.28010083 0.655463558
vt 1.37857013 0.655463558
vt 1.47703942 0.655463558
vt 1.57550872 0.655463558
vt 1.67397801 0.655463558
vt 1.77244731 0.655463558
vt 1.8709166 0.655463558
vt 1.96938589 0.655463558
vt 2.06785519 0.655463558
vt 2.16632448 0.655463558
vt 2.26479378 0.655463558
vt 2.36326307 0.655463558
vt 2.46173237 0.655463558
vt 2.56020166 0.655463558
vt 2.65867096 0.655463558
vt 2.75714025 0.655463558
vt 2.85560955 0.655463558
vt 2.95407884 0.655463558
vt 3.05254814 0.655463558
vt 3.15101743 0.655463558
vt 3.24948673 0.655463558
vt 3.34795602 0.655463558
vt 3.44642532 0.655463558
vt 3.54489461 0.655463558
vt 3.64336391 0.655463558
vt 3.7418332 0.655463558
vt 3.84030249 0.655463558
vt 3.93877179 0.655463558
vt 0 0.88588443
vt 0.0984692947 0.88588443
vt 0.196938589 0.88588443
vt 0.295407884 0.88588443
vt 0.393877179 0.88588443
vt 0.492346474 0.88588443
vt 0.590815768 0.88588443
vt 0.689285063 0.88588443
vt 0.787754358 0.88588443
vt 0.886223653 0.88588443
vt 0.984692947 0.88588443
vt 1.08316224 0.88588443
vt 1.18163154 0.88588443
vt 1.28010083 0.88588443
vt 1.37857013 0.88588443
vt 1.47703942 0.88588443
vt 1.57550872 0.88588443
vt 1.67397801 0.88588443
vt 1.77244731 0.88588443
vt 1.8709166 0.88588443
vt 1.96938589 0.88588443
vt 2.06785519 0.88588443
vt 2.16632448 0.88588443
vt 2.26479378 0.88588443
vt 2.36326307 0.88588443
vt 2.46173237 0.88588443
vt 2.56020166 0.88588443
vt 2.65867096 0.88588443
vt 2.75714025 0.88588443
vt 2.85560955 0.88588443
vt 2.95407884 0.88588443
vt 3.05254814 0.88588443
vt 3.15101743 0.88588443
vt 3.24948673 0.88588443
vt 3.34795602 0.88588443
vt 3.44642532 0.88588443
vt 3.54489461 0.88588443
vt 3.64336391 0.88588443
vt 3.7418332 0.88588443
vt 3.84030249 0.88588443
vt 3.93877179 0.88588443
vt 0 1.13310916
vt 0.0984692947 1.13310916
vt 0.196938589 1.13310916
vt 0.295407884 1.13310916
vt 0.393877179 1.13310916
vt 0.492346474 1.13310916
vt 0.590815768 1.13310916
vt 0.689285063 1.13310916
vt 0.787754358 1.13310916
vt 0.886223653 1.13310916
vt 0.984692947 1.13310916
vt 1.08316224 1.13310916
vt 1.18163154 1.13310916
vt 1.28010083 1.13310916
vt 1.37857013 1.13310916
vt 1.47703942 1.13310916
vt 1.57550872 1.13310916
vt 1.67397801 1.13310916
vt 1.77244731 1.13310916
vt 1.8709166 1.13310916
vt 1.96938589 1.13310916
vt 2.06785519 1.13310916
vt 2.16632448 1.13310916
vt 2.26479378 1.13310916
vt 2.36326307 1.13310916
vt 2.46173237 1.13310916
vt 2.56020166 1.13310916
vt 2.65867096 1.13310916
vt 2.75714025 1.13310916
vt 2.85560955 1.13310916
vt 2.95407884 1.13310916
vt 3.05254814 1.13310916
vt 3.15101743 1.13310916
vt 3.24948673 1.13310916
vt 3.34795602 1.13310916
vt 3.44642532 1.13310916
vt 3.54489461 1.13310916
vt 3.64336391 1.13310916
vt 3.7418332 1.13310916
vt 3.84030249 1.13310916
vt 3.93877179 1.13310916
vt 0 1.39524321
vt 0.0984692947 1.39524321
vt 0.196938589 1.39524321
vt 0.295407884 1.39524321
vt 0.393877179 1.39524321
vt 0.492346474 1.39524321
vt 0.590815768 1.39524321
vt 0.689285063 1.39524321
vt 0.787754358 1.39524321
vt 0.886223653 1.39524321
vt 0.984692947 1.39524321
vt 1.08316224 1.39524321
vt 1.18163154 1.39524321
vt 1.28010083 1.39524321
vt 1.37857013 1.39524321
vt 1.47703942 1.39524321
vt 1.57550872 1.39524321
vt 1.67397801 1.39524321
vt 1.77244731 1.39524321
vt 1.8709166 1.39524321
vt 1.96938589 1.39524321
vt 2.06785519 1.39524321
vt 2.16632448 1.39524321
vt 2.26479378 1.39524321
vt 2.36326307 1.39524321
vt 2.46173237 1.39524321
vt 2.56020166 1.39524321
vt 2.65867096 1.39524321
vt 2.75714025 1.39524321
vt 2.85560955 1.39524321
vt 2.95407884 1.39524321
vt 3.05254814 1.39524321
vt 3.15101743 1.39524321
vt 3.24948673 1.39524321
vt 3.34795602 1.39524321
vt 3.44642532 1.39524321
vt 3.54489461 1.39524321
vt 3.64336391 1.39524321
vt 3.7418332 1.39524321
vt 3.84030249 1.39524321
vt 3.93877179 1.39524321
vt 0 1.67085609
vt 0.0984692947 1.67085609
vt 0.196938589 1.67085609
vt 0.295407884 1.67085609
vt 0.393877179 1.67085609
vt 0.492346474 1.67085609
vt 0.590815768 1.67085609
vt 0.689285063 1.67085609
vt 0.787754358 1.67085609
vt 0.886223653 1.67085609
vt 0.984692947 1.67085609
vt 1.08316224 1.67085609
vt 1.18163154 1.67085609
vt 1.28010083 1.67085609
vt 1.37857013 1.67085609
vt 1.47703942 1.67085609
vt 1.57550872 1.67085609
vt 1.67397801 1.67085609
vt 1.77244731 1.67085609
vt 1.8709166 1.67085609
vt 1.96938589 1.67085609
vt 2.06785519 1.67085609
vt 2.16632448 1.67085609
vt 2.26479378 1.67085609
vt 2.36326307 1.67085609
vt 2.46173237 1.67085609
vt 2.56020166 1.67085609
vt 2.65867096 1.67085609
vt 2.75714025 1.67085609
vt 2.85560955 1.67085609
vt 2.95407884 1.67085609
vt 3.05254814 1.67085609
vt 3.15101743 1.67085609
vt 3.24948673 1.67085609
vt 3.34795602 1.67085609
vt 3.44642532 1.67085609
vt 3.54489461 1.67085609
vt 3.64336391 1.67085609
vt 3.7418332 1.67085609
vt 3.84030249 1.67085609
vt 3.93877179 1.67085609
vt 0 1.9588219
vt 0.0984692947 1.9588219
vt 0.196938589 1.9588219
vt 0.295407884 1.9588219
vt 0.393877179 1.9588219
vt 0.492346474 1.9588219
vt 0.590815768 1.9588219
vt 0.689285063 1.9588219
vt 0.787754358 1.9588219
vt 0.886223653 1.9588219
vt 0.984692947 1.9588219
vt 1.08316224 1.9588219
vt 1.18163154 1.9588219
vt 1.28010083 1.9588219
vt 1.37857013 1.9588219
vt 1.47703942 1.9588219
vt 1.57550872 1.9588219
vt 1.67397801 1.9588219
vt 1.77244731 1.9588219
vt 1.8709166 1.9588219
vt 1.96938589 1.9588219
vt 2.06785519 1.9588219
vt 2.16632448 1.9588219
vt 2.26479378 1.9588219
vt 2.36326307 1.9588219
vt 2.46173237 1.9588219
vt 2.56020166 1.9588219
vt 2.65867096 1.9588219
vt 2.75714025 1.9588219
vt 2.85560955 1.9588219
vt 2.95407884 1.9588219
vt 3.05254814 1.9588219
vt 3.15101743 1.9588219
vt 3.24948673 1.9588219
vt 3.34795602 1.9588219
vt 3.44642532 1.9588219
vt 3.54489461 1.9588219
vt 3.64336391 1.9588219
vt 3.7418332 1.9588219
vt 3.84030249 1.9588219
vt 3.93877179 1.9588219
vt 0 2.25822683
vt 0.0984692947 2.25822683
vt 0.196938589 2.25822683
vt 0.295407884 2.25822683
vt 0.393877179 2.25822683
vt 0.492346474 2.25822683
vt 0.590815768 2.25822683
vt 0.689285063 2.25822683
vt 0.787754358 2.25822683
vt 0.886223653 2.25822683
vt 0.984692947 2.25822683
vt 1.08316224 2.25822683
vt 1.18163154 2.25822683
vt 1.28010083 2.25822683
vt 1.37857013 2.25822683
vt 1.47703942 2.25822683
vt 1.57550872 2.25822683
vt 1.67397801 2.25822683
vt 1.77244731 2.25822683
vt 1.8709166 2.25822683
vt 1.96938589 2.25822683
vt 2.06785519 2.25822683
vt 2.16632448 2.25822683
vt 2.26479378 2.25822683
vt 2.36326307 2.25822683
vt 2.46173237 2.25822683
vt 2.56020166 2.25822683
vt 2.65867096 2.25822683
vt 2.75714025 2.25822683
vt 2.85560955 2.25822683
vt 2.95407884 2.25822683
vt 3.05254814 2.25822683
vt 3.15101743 2.25822683
vt 3.24948673 2.25822683
vt 3.34795602 2.25822683
vt 3.44642532 2.25822683
vt 3.54489461 2.25822683
vt 3.64336391 2.25822683
vt 3.7418332 2.25822683
vt 3.84030249 2.25822683
vt 3.93877179 2.25822683
vt 0 2.56831145
vt 0.0984692947 2.56831145
vt 0.196938589 2.56831145
vt 0.295407884 2.56831145
vt 0.393877179 2.56831145
vt 0.492346474 2.56831145
vt 0.590815768 2.56831145
vt 0.689285063 2.56831145
vt 0.787754358 2.56831145
vt 0.886223653 2.56831145
vt 0.984692947 2.56831145
vt 1.08316224 2.56831145
vt 1.18163154 2.56831145
vt 1.28010083 2.56831145
vt 1.37857013 2.56831145
vt 1.47703942 2.56831145
vt 1.57550872 2.56831145
vt 1.67397801 2.56831145
vt 1.77244731 2.56831145
vt 1.8709166 2.56831145
vt 1.96938589 2.56831145
vt 2.06785519 2.56831145
vt 2.16632448 2.56831145
vt 2.26479378 2.56831145
vt 2.36326307 2.56831145
vt 2.46173237 2.56831145
vt 2.56020166 2.56831145
vt 2.65867096 2.56831145
vt 2.75714025 2.56831145
vt 2.85560955 2.56831145
vt 2.95407884 2.56831145
vt 3.05254814 2.56831145
vt 3.15101743 2.56831145
vt 3.24948673 2.56831145
vt 3.34795602 2.56831145
vt 3.44642532 2.56831145
vt 3.54489461 2.56831145
vt 3.64336391 2.56831145
vt 3.7418332 2.56831145
vt 3.84030249 2.56831145
vt 3.93877179 2.56831145
vt 0 2.88843265
vt 0.0984692947 2.88843265
vt 0.196938589 2.88843265
vt 0.295407884 2.88843265
vt 0.393877179 2.88843265
vt 0.492346474 2.88843265
vt 0.590815768 2.88843265
vt 0.689285063 2.88843265
vt 0.787754358 2.88843265
vt 0.886223653 2.88843265
vt 0.984692947 2.88843265
vt 1.08316224 2.88843265
vt 1.18163154 2.88843265
vt 1.28010083 2.88843265
vt 1.37857013 2.88843265
vt 1.47703942 2.88843265
vt 1.57550872 2.88843265
vt 1.67397801 2.88843265
vt 1.77244731 2.88843265
vt 1.8709166 2.88843265
vt 1.96938589 2.88843265
vt 2.06785519 2.88843265
vt 2.16632448 2.88843265
vt 2.26479378 2.88843265
vt 2.36326307 2.88843265
vt 2.46173237 2.88843265
vt 2.56020166 2.88843265
vt 2.65867096 2.88843265
vt 2.75714025 2.88843265
vt 2.85560955 2.88843265
vt 2.95407884 2.88843265
vt 3.05254814 2.88843265
vt 3.15101743 2.88843265
vt 3.24948673 2.88843265
vt 3.34795602 2.88843265
vt 3.44642532 2.88843265
vt 3.54489461 2.88843265
vt 3.64336391 2.88843265
vt 3.7418332 2.88843265
vt 3.84030249 2.88843265
vt 3.93877179 2.88843265
vn 0.386413668 0.261660536 0.884431027
vn 0.390813845 0.267305563 0.880802063
vn 0.39728466 0.27575439 0.875285334
vn 0.408307627 0.282736574 0.867954441
vn 0.435640525 0.291415485 0.851642148
vn 0.437083948 0.301985602 0.847208545
vn 0.439122624 0.309772866 0.843333915
vn 0.457203065 0.318531189 0.830363318
vn 0.458966789 0.326286772 0.826369426
vn 0.476634166 0.334978246 0.812778842
vn 0.478112085 0.342700165 0.808681291
vn 0.495347044 0.35132165 0.794483734
vn 0.496528991 0.359007961 0.790298833
vn 0.513312761 0.367556301 0.775507818
vn 0.514189283 0.375205102 0.771252561
vn 0.530503696 0.383677122 0.755882064
vn 0.531066091 0.391286555 0.751574107
vn 0.546893594 0.399679065 0.735638526
vn 0.547133935 0.40724732 0.731296163
vn 0.562457613 0.415557106 0.714810272
vn 0.562368777 0.423082421 0.710452408
vn 0.57717236 0.431306248 0.693431314
vn 0.589659062 0.438326015 0.678360151
vn 0.602002491 0.450208143 0.659473751
vn 0.546070205 0.457054134 0.702074676
vn 0.555213295 0.457054134 0.694866689
vn 0.564261252 0.457054134 0.687539641
vn 0.573212527 0.457054134 0.680094786
vn 0.582065584 0.457054134 0.672533401
vn 0.590818907 0.457054134 0.66485678
vn 0.599470997 0.457054134 0.65706624
vn 0.60802037 0.457054134 0.649163114
vn 0.619911232 0.457053116 0.637818559
vn 0.635036935 0.458281073 0.621857338
vn 0.639087592 0.460242786 0.616233419
vn 0.639718052 0.460930675 0.615064002
vn 0.647714185 0.460930675 0.606637658
vn 0.655599335 0.460930675 0.598107369
vn 0.663372152 0.460930675 0.589474597
vn 0.671031303 0.460930675 0.580740823
vn 0.676070257 0.460923755 0.57487242
vn 0.359454565 0.304520749 0.882076827
vn 0.354635187 0.325619246 0.876473611
vn 0.361793563 0.333600429 0.870526376
vn 0.377276348 0.340689931 0.8611579
vn 0.390557342 0.350060814 0.851423743
vn 0.393616191 0.359764295 0.845952686
vn 0.406888752 0.367199503 0.836424574
vn 0.413026488 0.375985141 0.829484354
vn 0.425941145 0.383367322 0.819514269
vn 0.431726852 0.392091279 0.812327738
vn 0.444268262 0.399418104 0.801929479
vn 0.449689311 0.40807779 0.794513714
vn 0.461842752 0.415346941 0.783701595
vn 0.466887266 0.423939789 0.776074311
vn 0.47863866 0.431148961 0.764863129
vn 0.483295536 0.43967243 0.757042653
vn 0.494631467 0.446819328 0.745447651
vn 0.498890408 0.455270906 0.737452888
vn 0.509798139 0.462353247 0.725489719
vn 0.513649676 0.470730447 0.717340126
vn 0.524117169 0.47774596 0.705024816
vn 0.527552684 0.486046326 0.696740364
vn 0.547237174 0.493574946 0.675955063
vn 0.534703252 0.505005156 0.677541308
vn 0.530005584 0.508100952 0.678916418
vn 0.538846919 0.508100952 0.671920695
vn 0.547595925 0.508100952 0.664809842
vn 0.556251103 0.508100952 0.657585077
vn 0.56481097 0.508100952 0.650247638
vn 0.57327406 0.508100952 0.642798782
vn 0.581638922 0.508100952 0.635239787
vn 0.589904124 0.508100952 0.627571946
vn 0.600630225 0.508356847 0.617103435
vn 0.609583231 0.50985054 0.607009647
vn 0.614196643 0.511474535 0.600962797
vn 0.620334529 0.511852847 0.594299365
vn 0.628060522 0.511852847 0.586128522
vn 0.6356789 0.511852847 0.577857248
vn 0.643188357 0.511852847 0.569486962
vn 0.650587608 0.511852847 0.561019097
vn 0.648806735 0.524106986 0.551689848
vn 0.322215842 0.364204112 0.873803362
vn 0.328160209 0.373155564 0.86779364
vn 0.338479978 0.380930937 0.860420203
vn 0.348307459 0.387949148 0.853333096
vn 0.357973406 0.397252008 0.845012357
vn 0.367575458 0.406633854 0.8363834
vn 0.37682112 0.41392793 0.828655243
vn 0.38625699 0.42251504 0.819930838
vn 0.39515369 0.429750712 0.811891549
vn 0.404206913 0.438267525 0.802831457
vn 0.412741925 0.445442587 0.794496699
vn 0.42139904 0.453886509 0.785117753
vn 0.429560332 0.460998776 0.776503734
vn 0.437808627 0.469367235 0.766823321
vn 0.445584882 0.47641454 0.757946765
vn 0.453412415 0.484704986 0.747982793
vn 0.460793058 0.491685184 0.738860906
vn 0.46818868 0.499895093 0.72863177
vn 0.475163892 0.506806055 0.71928221
vn 0.48211727 0.514932926 0.708806758
vn 0.488678013 0.521772548 0.699247601
vn 0.495179645 0.529813906 0.688545093
vn 0.50114033 0.537418078 0.678262618
vn 0.50643446 0.548190551 0.665590908
vn 0.513745863 0.550826179 0.657765694
vn 0.522311736 0.550826179 0.650984616
vn 0.530788114 0.550826179 0.644091996
vn 0.539173544 0.550826179 0.637089013
vn 0.547466589 0.550826179 0.629976868
vn 0.555665828 0.550826179 0.622756781
vn 0.563769858 0.550826179 0.615429986
vn 0.571777288 0.550826179 0.607997742
vn 0.579259671 0.551104076 0.600618457
vn 0.586574698 0.55259475 0.592088816
vn 0.593837588 0.554134576 0.583345344
vn 0.601072677 0.55446219 0.575572165
vn 0.608555189 0.55446219 0.567655056
vn 0.615933427 0.55446219 0.559640682
vn 0.623206129 0.55446219 0.551530417
vn 0.630372047 0.55446219 0.54332565
vn 0.63243873 0.557514701 0.537771895
vn 0.318775642 0.386327691 0.865524699
vn 0.324968574 0.395759197 0.858935436
vn -0.182474254 -0.629757385 0.755055483
vn 0.560972181 -0.747774793 0.355166258
vn 0.782691343 -0.607379921 0.135955482
vn 0.755909542 -0.632601614 0.168570348
vn 0.97064721 -0.210504364 -0.116326719
vn 0.381967623 0.444578084 0.810216676
vn -0.0921769244 -0.676629819 0.730530973
vn 0.777966966 -0.611971983 0.142329518
vn 0.731422168 -0.6518319 0.200341674
vn 0.788706176 -0.601297997 0.12799721
vn 0.963042832 -0.190314673 -0.19060123
vn 0.432208664 0.490842959 0.756484541
vn 0.439564176 0.497795275 0.74765179
vn -0.0146765309 -0.632914357 0.774082694
vn 0.769620295 -0.618067005 0.160242874
vn 0.819188879 -0.567906479 0.0800737924
vn 0.948797724 -0.169879772 -0.266315119
vn 0.475104526 0.535762468 0.698021681
vn 0.0404661929 -0.601784737 0.797632508
vn 0.837563724 -0.544564981 0.0439998889
vn 0.845724044 -0.533149152 0.0224237186
vn 0.879657822 -0.470159503 -0.0717785365
vn 0.436844149 -0.702647503 0.56165263
vn 0.939612411 -0.177866344 -0.292390288
vn 0.522139685 0.571011591 0.633494998
vn -0.29147498 -0.394998273 0.871216793
vn 0.465640096 -0.702647503 0.538020248
vn 0.472642671 -0.702647503 0.531879114
vn 0.918477389 -0.177866344 -0.35321785
vn 0.562454299 0.571011591 0.597989067
vn -0.199718317 -0.414312054 0.887951641
vn 0.631297569 -0.68759077 0.358723168
vn 0.601439822 -0.69292052 0.397657256
vn 0.51512475 -0.699529925 0.495282117
vn 0.521563661 -0.699529925 0.48849691
vn 0.88249623 -0.175846877 -0.436208987
vn 0.612940598 0.574587561 0.542358699
vn 0.131027214 -0.0905392767 0.987235792
vn 0.938529045 -0.05260315 -0.341168785
vn 0.314686114 0.411381219 0.855416941
vn -0.75603345 -0.238675285 0.609464955
vn -0.67927861 -0.402806489 0.613455379
vn 0.234677872 -0.786514368 0.571245521
vn 0.792298245 -0.583782206 0.17737482
vn 0.958438349 -0.214969156 -0.1875745
vn 0.956522717 -0.215398623 -0.196641105
vn -0.18515428 -0.708252999 0.68124561
vn -0.176522446 -0.703700111 0.688219427
vn 0.753493466 -0.615047504 0.23230188
vn 0.794629857 -0.580917855 0.176345784
vn 0.945371024 -0.198323769 -0.258730186
vn 0.942787684 -0.198438541 -0.267905818
vn 0.81568614 -0.563351962 0.131494058
vn -0.115139406 -0.669980911 0.733395184
vn -0.103192143 -0.663252648 0.741247129
vn 0.828159991 -0.546017415 0.126554385
vn 0.926210966 -0.181227149 -0.33059033
vn 0.922891579 -0.181048076 -0.339842209
vn -0.0600803687 -0.63930409 0.766603307
vn -0.0506074231 -0.634087145 0.771603773
vn 0.82879172 -0.542765605 0.136050661
vn 0.90308883 -0.420620047 -0.08665646
vn 0.794616878 -0.567756534 0.215026826
vn 0.913403389 -0.205035545 -0.351645666
vn 0.908722236 -0.205035545 -0.36357162
vn -0.35983251 -0.409839196 0.838183989
vn -0.348830192 -0.409839196 0.842822241
vn 0.495612315 -0.656485699 0.568678257
vn 0.888448995 -0.205035545 -0.410632205
vn 0.88299787 -0.205035545 -0.422226463
vn -0.304242225 -0.409839196 0.859923544
vn -0.262784465 -0.430214176 0.863631917
vn 0.662349599 -0.641772013 0.386551022
vn 0.590363948 -0.651432397 0.47655665
vn 0.547629449 -0.653199956 0.52290707
vn 0.847461863 -0.203215091 -0.490420245
vn 0.839767538 -0.199679879 -0.504894472
vn 0.438976844 -0.631853514 0.638796108
vn 0.941770079 -0.316455044 -0.113689595
vn 0.728515634 0.0877581715 -0.679384629
vn -0.770109345 -0.0647971486 0.634612422
vn -0.878119299 -0.0239358546 0.477842622
vn -0.886637971 0.0527769545 0.459442817
vn -0.794694114 0.131219642 0.592657296
vn 0.232805618 0.468667143 0.852145911
vn 0.985093941 -0.151154626 -0.082110935
vn 0.785617969 -0.575667653 0.22674029
vn -0.14456505 -0.571386572 0.807847963
vn 0.378227814 0.502910128 0.777190533
vn 0.387036242 0.511058008 0.767478117
vn 0.394324585 0.517915602 0.759125517
vn 0.978132859 -0.130466516 -0.161970983
vn 0.822181935 -0.540525874 0.178461889
vn 0.79694264 -0.561581367 0.222505722
vn -0.0689838736 -0.526275027 0.847511547
vn 0.43158482 0.555334651 0.710871275
vn 0.437670112 0.561967408 0.701881404
vn 0.963724936 -0.110026873 -0.243163184
vn 0.855200525 -0.503669531 0.122266372
vn -0.0113471214 -0.491287155 0.870923748
vn 0.462255364 0.590486829 0.661547642
vn 0.468396213 0.59808916 0.65030327
vn 0.472617371 0.605320783 0.640483856
vn 0.47848534 0.615428558 0.626338143
vn 0.954639318 -0.105009375 -0.278633815
vn 0.491904193 -0.619949258 0.611304493
vn -0.310204037 -0.311875992 0.898057248
vn 0.508085523 0.617775316 0.600168943
vn 0.515897963 0.617775316 0.593466891
vn 0.934371839 -0.105009375 -0.340473638
vn 0.530832215 -0.619949258 0.57782357
vn -0.250804112 -0.311875992 0.916422753
vn 0.545691235 0.618054299 0.565888646
vn 0.552605236 0.619475514 0.557563934
vn 0.559445677 0.620908265 0.549084202
vn 0.566085266 0.621199613 0.541902678
vn 0.895645182 -0.0988228446 -0.43365165
vn 0.87229218 -0.488685894 0.0171011482
vn 0.837379651 -0.130161087 -0.530898683
vn 0.710815399 0.0628466181 -0.700565323
vn 0.724658981 0.0891567334 -0.683315768
vn -0.876167414 0.0757359347 0.476019676
vn -0.892736115 0.0544651104 0.447275957
vn -0.888103874 0.0551829893 0.456318252
vn -0.798838896 0.137326508 0.585660181
vn 0.22482038 0.496975883 0.838135293
vn 0.346881512 0.509198406 0.787648526
vn 0.354493476 0.516064682 0.779750998
vn 0.36353918 0.524138133 0.770141859
vn 0.370772867 0.530931781 0.76199667
vn 0.379404136 0.538918202 0.752076907
vn 0.386248969 0.545637151 0.74370144
vn 0.394454117 0.553534111 0.73348888
vn 0.400900277 0.560176316 0.724901002
vn 0.408668418 0.567981408 0.714413917
vn 0.414706865 0.574544844 0.705631943
vn 0.422027931 0.582255693 0.694889008
vn 0.427650421 0.58873836 0.685931674
vn 0.434515182 0.596352617 0.674951933
vn 0.439714285 0.60275254 0.665838361
vn 0.446114362 0.610267887 0.654641186
vn 0.45088348 0.616583115 0.645390851
vn 0.456811359 0.623997263 0.633995898
vn 0.46044438 0.631052231 0.624310864
vn 0.466348124 0.640893125 0.609733901
vn 0.471448098 0.643162123 0.603389737
vn 0.479305836 0.643162123 0.597166978
vn 0.487081447 0.643162123 0.590841898
vn 0.494773599 0.643162123 0.58441558
vn 0.502380974 0.643162123 0.577889125
vn 0.509902268 0.643162123 0.571263652
vn 0.517336194 0.643162123 0.564540296
vn 0.524681477 0.643162123 0.557720209
vn 0.531334676 0.643435869 0.551066008
vn 0.538061689 0.644821769 0.542857721
vn 0.54471373 0.646214508 0.534503286
vn 0.551119838 0.64649603 0.527550763
vn 0.643904107 0.640986539 0.417760408
vn 0.790432197 0.162440976 -0.590618212
vn 0.71606601 0.0644984819 -0.69504634
vn 0.707878715 0.0637210956 -0.703453869
vn 0.720469538 0.0902765907 -0.687585473
vn -0.878426558 0.0791573556 0.471275817
vn -0.894348221 0.056774026 0.443754402
vn -0.889740636 0.0574748339 0.452833572
vn -0.803563603 0.143128705 0.577754021
vn 0.215650014 0.52639801 0.822435533
vn 0.339642207 0.538787622 0.770941677
vn 0.346804004 0.545507045 0.762986925
vn 0.355647291 0.553404611 0.753165547
vn 0.362422193 0.560047307 0.744981321
vn 0.370843376 0.567853028 0.734859258
vn 0.37722144 0.574416972 0.726463438
vn 0.385209441 0.582128471 0.716058748
vn 0.391181498 0.588611664 0.707469677
vn 0.398726052 0.596226592 0.696800823
vn 0.40428373 0.602627059 0.688037276
vn 0.411375405 0.610143096 0.67712309
vn 0.416511139 0.616458887 0.668204244
vn 0.42314135 0.623873745 0.657063884
vn 0.427848407 0.630102934 0.648009284
vn 0.434009431 0.637414356 0.636662196
vn 0.438281918 0.643555046 0.627491723
vn 0.443966906 0.650760805 0.615957597
vn 0.446990352 0.657617966 0.606414245
vn 0.452894173 0.667166104 0.591418851
vn 0.457430647 0.669355437 0.585423353
vn 0.465054413 0.669355437 0.579385617
vn 0.472598494 0.669355437 0.573248605
vn 0.480061598 0.669355437 0.56701337
vn 0.487442445 0.669355437 0.560680981
vn 0.494739772 0.669355437 0.554252521
vn 0.501952328 0.669355437 0.547729094
vn 0.509078877 0.669355437 0.541111815
vn 0.515471966 0.66962262 0.534690751
vn 0.52199072 0.670968742 0.526618112
vn 0.528434407 0.67231806 0.518406696
vn 0.53458715 0.672589502 0.51170298
vn 0.62988125 0.666464856 0.398841079
vn 0.783340397 0.164004106 -0.599566907
vn 0.712869518 0.0650754718 -0.698270888
vn 0.704718275 0.0643377659 -0.706564084
vn 0.715985656 0.0910291419 -0.692154778
vn -0.880910437 0.0823642461 0.466061082
vn -0.896107577 0.0589156553 0.439909258
vn -0.891538405 0.0595854393 0.449008739
vn -0.808817632 0.148474751 0.569007281
vn 0.205258004 0.556618209 0.805012621
vn 0.33157358 0.569212861 0.752366719
vn 0.338259328 0.575769043 0.744359212
vn 0.346871527 0.583471298 0.734330572
vn 0.353161524 0.589946541 0.726112951
vn 0.361344412 0.597552004 0.715794537
vn 0.367229381 0.603944335 0.707385201
vn 0.374972545 0.611450689 0.696795268
vn 0.380444002 0.617758161 0.68821306
vn 0.387737858 0.625163121 0.677370228
vn 0.392788128 0.63138381 0.668634407
vn 0.399623937 0.638685122 0.65755762
vn 0.404246171 0.644817134 0.648687828
vn 0.410616054 0.652012573 0.637396314
vn 0.41480424 0.658054038 0.628412544
vn 0.420701189 0.665141415 0.616925772
vn 0.424450173 0.671090492 0.607848337
vn 0.429868063 0.678067648 0.596185972
vn 0.432255252 0.684706477 0.586798464
vn 0.438138437 0.693935414 0.571391591
vn 0.442086015 0.6960416 0.565761475
vn 0.449453729 0.6960416 0.559926277
vn 0.456744432 0.6960416 0.55399514
vn 0.463956874 0.6960416 0.547969078
vn 0.471089819 0.6960416 0.541849124
vn 0.478142046 0.6960416 0.535636327
vn 0.485112345 0.6960416 0.529331752
vn 0.491999523 0.6960416 0.522936478
vn 0.498110023 0.696301101 0.51676995
vn 0.50440093 0.697603201 0.508851134
vn 0.510617724 0.698905505 0.500799995
vn 0.516496215 0.699166416 0.494366243
vn 0.614689116 0.692314195 0.377966066
vn 0.775855186 0.164858786 -0.608991224
vn 0.709492513 0.0653484204 -0.701676534
vn 0.701364949 0.0646429016 -0.70986513
vn 0.71124624 0.0913341306 -0.696984119
vn -0.883609873 0.0852644652 0.460395008
vn -0.907079949 0.119129918 0.403749958
vn -0.916372074 0.227070494 0.32969867
vn -0.840770815 0.51363214 0.171132878
vn -0.749117368 0.659386389 0.0635040142
vn -0.701354655 0.71247901 0.0218015859
vn -0.663847453 0.74784254 -0.006172078
vn -0.709702696 0.703747781 0.0325752101
vn -0.67356312 0.739122684 0.00322214049
vn -0.717971907 0.694670503 0.0441501226
vn -0.683262827 0.730048184 0.0134743443
vn -0.726110888 0.685248713 0.056543607
vn -0.692894022 0.72061948 0.0246056849
vn -0.73406621 0.675484174 0.0697705542
vn -0.702401891 0.71083715 0.0366350889
vn -0.741782461 0.665378899 0.0838433118
vn -0.711729388 0.700701927 0.049579109
vn -0.749202312 0.654935173 0.0987715293
vn -0.720817251 0.690214723 0.0634517666
vn -0.756266579 0.644155579 0.114561998
vn -0.729604045 0.679376643 0.078264387
vn -0.762914304 0.633043027 0.131218485
vn -0.786818577 0.589285303 0.183464868
vn -0.800107601 0.563050591 0.206886102
vn -0.302084783 0.870383304 -0.38881575
vn -0.307148344 0.870383304 -0.384828271
vn -0.312159276 0.870383304 -0.380774854
vn -0.317116722 0.870383304 -0.376656194
vn -0.322019831 0.870383304 -0.372472995
vn -0.326867763 0.870383304 -0.368225975
vn -0.331659689 0.870383304 -0.363915862
vn -0.336394786 0.870383304 -0.359543393
vn -0.40083849 0.867343879 -0.295030678
vn -0.500047478 0.84657715 -0.182372281
vn -0.45274791 0.858803999 -0.239739485
vn -0.357465634 0.868244169 -0.344049972
vn -0.32986112 0.86708058 -0.37331342
vn 0.309024128 0.524545672 -0.793319562
vn 0.53861171 0.251814531 -0.804044071
vn 0.608825266 0.192039769 -0.769709375
vn 0.6649252 0.209862541 -0.716820893
vn -0.809196342 0.361781321 0.462942282
vn -0.830073015 0.473017923 0.29535205
vn -0.758536979 0.648009277 0.0685975858
vn -0.726366797 0.687281576 -0.0059422975
vn -0.763671698 0.645008478 0.0277416839
vn -0.67364197 0.737017349 -0.0548810024
vn -0.736919336 0.675953322 0.00608255197
vn -0.684520336 0.727601077 -0.0450397776
vn -0.745536358 0.666196171 0.0189262032
vn -0.695364725 0.717838281 -0.0342943459
vn -0.753962323 0.656107849 0.0326083559
vn -0.706120791 0.707729886 -0.0226237906
vn -0.762142121 0.645691179 0.0471411566
vn -0.716731913 0.697276972 -0.0100094404
vn -0.770018763 0.634949287 0.0625340603
vn -0.727139204 0.686480786 0.00356498222
vn -0.777533458 0.62388563 0.0787936743
vn -0.737281535 0.675342765 0.0181132038
vn -0.784625694 0.612504027 0.0959235968
vn -0.747095559 0.663864562 0.0336462347
vn -0.791233331 0.60080869 0.113924251
vn -0.756515743 0.652048066 0.0501721938
vn -0.84544946 0.462641393 0.26679234
vn -0.681848095 0.727593325 -0.0754395711
vn -0.337001175 0.838377243 -0.428431799
vn -0.342580303 0.838377243 -0.423983885
vn -0.34810073 0.838377243 -0.419463324
vn -0.353561513 0.838377243 -0.414870889
vn -0.358961715 0.838377243 -0.410207369
vn -0.36430041 0.838377243 -0.405473562
vn -0.369576685 0.838377243 -0.400670279
vn -0.374789634 0.838377243 -0.395798343
vn -0.493099638 0.826754307 -0.270795241
vn -0.540691766 0.813957495 -0.212427893
vn -0.441893118 0.8337291 -0.331098565
vn -0.397653553 0.835973968 -0.378178764
vn -0.391871874 0.836371859 -0.383299553
vn -0.0726538099 0.774299317 -0.628635023
vn 0.30163308 0.619520851 -0.724714703
vn 0.581226482 0.639177059 -0.503615394
vn 0.497667085 0.757133793 0.423173595
vn 0.26710133 0.625287314 0.733261655
vn 0.273493481 0.635213584 0.722291505
vn 0.281438858 0.641649371 0.7134972
vn 0.287598001 0.647482688 0.705729097
vn 0.294998434 0.655201601 0.695475942
vn 0.302247473 0.662859321 0.685028456
vn 0.307322866 0.668824079 0.676924669
vn 0.315106434 0.67582006 0.666314627
vn 0.319758611 0.681690932 0.658066793
vn 0.327095848 0.688574937 0.64720388
vn 0.331317684 0.694350134 0.638832125
vn 0.338200552 0.701120066 0.627734848
vn 0.341985751 0.706797828 0.6192597
vn 0.348407085 0.713451627 0.607946773
vn 0.351750199 0.719030222 0.599389136
vn 0.35770372 0.725565863 0.587879432
vn 0.360600157 0.731043591 0.579260558
vn 0.366080481 0.737459084 0.567573062
vn 0.368526517 0.742834275 0.558914525
vn 0.373529163 0.749127667 0.547068279
vn 0.375521951 0.754398681 0.538391952
vn 0.380043348 0.760568058 0.526406006
vn 0.380315144 0.766430954 0.517633059
vn 0.386147345 0.774540292 0.50097661
vn 0.38810465 0.776369312 0.496614007
vn 0.394571876 0.776369312 0.491491328
vn 0.400971495 0.776369312 0.486284435
vn 0.40730241 0.776369312 0.480994219
vn 0.413563535 0.776369312 0.475621587
vn 0.419753798 0.776369312 0.47016746
vn 0.425872139 0.776369312 0.464632772
vn 0.431917508 0.776369312 0.459018472
vn 0.437036014 0.776599945 0.45375329
vn 0.442540632 0.777745464 0.446396441
vn 0.447979174 0.778884266 0.438923638
vn 0.45289954 0.779109995 0.433439295
vn 0.458534284 0.779109995 0.427473889
vn 0.46409046 0.779109995 0.421435238
vn 0.469567117 0.779109995 0.415324376
vn 0.474963316 0.779109995 0.409142351
vn 0.473382723 0.783506878 0.402524248
vn 0.265217152 0.647857741 0.71410098
vn 0.274410397 0.653378909 0.705545842
vn 0.281723917 0.65941273 0.696998196
vn 0.287895429 0.665412267 0.688725444
vn 0.295781855 0.673503127 0.677426478
vn 0.302089335 0.680460076 0.667619741
vn 0.306822823 0.686312641 0.659419983
vn 0.314416087 0.693144337 0.648608859
vn 0.318719844 0.698901061 0.640277258
vn 0.325863567 0.705617415 0.629219357
vn 0.329730883 0.711276568 0.620776279
vn 0.336417579 0.717875506 0.609489927
vn 0.339842577 0.72343539 0.600956122
vn 0.346065642 0.72991487 0.589459798
vn 0.349043292 0.73537382 0.580856373
vn 0.354797014 0.741731836 0.569168659
vn 0.357323145 0.747088219 0.560517049
vn 0.362602714 0.753322799 0.548656571
vn 0.364674023 0.758575017 0.539978519
vn 0.369475536 0.76468422 0.527963893
vn 0.371089592 0.76983071 0.519281419
vn 0.375410064 0.775812631 0.507131191
vn 0.375546674 0.782213141 0.497098881
vn 0.37986387 0.789371984 0.48228136
vn 0.379023653 0.78941433 0.482872742
vn 0.38531179 0.78941433 0.477870107
vn 0.391533906 0.78941433 0.472785591
vn 0.397688935 0.78941433 0.467620066
vn 0.403775821 0.78941433 0.462374416
vn 0.409793523 0.78941433 0.457049541
vn 0.415741009 0.78941433 0.451646353
vn 0.421617259 0.78941433 0.446165778
vn 0.427014367 0.789864439 0.440196432
vn 0.432831203 0.79119676 0.432047263
vn 0.437635715 0.792081908 0.425536406
vn 0.441892503 0.792085281 0.42110797
vn 0.447366778 0.792085281 0.415287699
vn 0.452764399 0.792085281 0.40939627
vn 0.458084442 0.792085281 0.403434693
vn 0.463325993 0.792085281 0.39740399
vn 0.465029014 0.792079716 0.395420966
f 1/1/1 2/2/2 42/42/42
f 2/2/2 43/43/43 42/42/42
f 2/2/2 3/3/3 43/43/43
f 3/3/3 44/44/44 43/43/43
f 3/3/3 4/4/4 44/44/44
f 4/4/4 45/45/45 44/44/44
f 4/4/4 5/5/5 45/45/45
f 5/5/5 46/46/46 45/45/45
f 5/5/5 6/6/6 46/46/46
f 6/6/6 47/47/47 46/46/46
f 6/6/6 7/7/7 47/47/47
f 7/7/7 48/48/48 47/47/47
f 7/7/7 8/8/8 48/48/48
f 8/8/8 49/49/49 48/48/48
f 8/8/8 9/9/9 49/49/49
f 9/9/9 50/50/50 49/49/49
f 9/9/9 10/10/10 50/50/50
f 10/10/10 51/51/51 50/50/50
f 10/10/10 11/11/11 51/51/51
f 11/11/11 52/52/52 51/51/51
f 11/11/11 12/12/12 52/52/52
f 12/12/12 53/53/53 52/52/52
f 12/12/12 13/13/13 53/53/53
f 13/13/13 54/54/54 53/53/53
f 13/13/13 14/14/14 54/54/54
f 14/14/14 55/55/55 54/54/54
f 14/14/14 15/15/15 55/55/55
f 15/15/15 56/56/56 55/55/55
f 15/15/15 16/16/16 56/56/56
f 16/16/16 57/57/57 56/56/56
f 16/16/16 17/17/17 57/57/57
f 17/17/17 58/58/58 57/57/57
f 17/17/17 18/18/18 58/58/58
f 18/18/18 59/59/59 58/58/58
f 18/18/18 19/19/19 59/59/59
f 19/19/19 60/60/60 59/59/59
f 19/19/19 20/20/20 60/60/60
f 20/20/20 61/61/61 60/60/60
f 20/20/20 21/21/21 61/61/61
f 21/21/21 62/62/62 61/61/61
f 21/21/21 22/22/22 62/62/62
f 22/22/22 63/63/63 62/62/62
f 22/22/22 23/23/23 63/63/63
f 23/23/23 64/64/64 63/63/63
f 23/23/23 24/24/24 64/64/64
f 24/24/24 65/65/65 64/64/64
f 24/24/24 25/25/25 65/65/65
f 25/25/25 66/66/66 65/65/65
f 25/25/25 26/26/26 66/66/66
f 26/26/26 67/67/67 66/66/66
f 26/26/26 27/27/27 67/67/67
f 27/27/27 68/68/68 67/67/67
f 27/27/27 28/28/28 68/68/68
f 28/28/28 69/69/69 68/68/68
f 28/28/28 29/29/29 69/69/69
f 29/29/29 70/70/70 69/69/69
f 29/29/29 30/30/30 70/70/70
f 30/30/30 71/71/71 70/70/70
f 30/30/30 31/31/31 71/71/71
f 31/31/31 72/72/72 71/71/71
f 31/31/31 32/32/32 72/72/72
f 32/32/32 73/73/73 72/72/72
f 32/32/32 33/33/33 73/73/73
f 33/33/33 74/74/74 73/73/73
f 33/33/33 34/34/34 74/74/74
f 34/34/34 75/75/75 74/74/74
f 34/34/34 35/35/35 75/75/75
f 35/35/35 76/76/76 75/75/75
f 35/35/35 36/36/36 76/76/76
f 36/36/36 77/77/77 76/76/76
f 36/36/36 37/37/37 77/77/77
f 37/37/37 78/78/78 77/77/77
f 37/37/37 38/38/38 78/78/78
f 38/38/38 79/79/79 78/78/78
f 38/38/38 39/39/39 79/79/79
f 39/39/39 80/80/80 79/79/79
f 39/39/39 40/40/40 80/80/80
f 40/40/40 81/81/81 80/80/80
f 40/40/40 41/41/41 81/81/81
f 41/41/41 82/82/82 81/81/81
f 42/42/42 43/43/43 83/83/83
f 43/43/43 84/84/84 83/83/83
f 43/43/43 44/44/44 84/84/84
f 44/44/44 85/85/85 84/84/84
f 44/44/44 45/45/45 85/85/85
f 45/45/45 86/86/86 85/85/85
f 45/45/45 46/46/46 86/86/86
f 46/46/46 87/87/87 86/86/86
f 46/46/46 47/47/47 87/87/87
f 47/47/47 88/88/88 87/87/87
f 47/47/47 48/48/48 88/88/88
f 48/48/48 89/89/89 88/88/88
f 48/48/48 49/49/49 89/89/89
f 49/49/49 90/90/90 89/89/89
f 49/49/49 50/50/50 90/90/90
f 50/50/50 91/91/91 90/90/90
f 50/50/50 51/51/51 91/91/91
f 51/51/51 92/92/92 91/91/91
f 51/51/51 52/52/52 92/92/92
f 52/52/52 93/93/93 92/92/92
f 52/52/52 53/53/53 93/93/93
f 53/53/53 94/94/94 93/93/93
f 53/53/53 54/54/54 94/94/94
f 54/54/54 95/95/95 94/94/94
f 54/54/54 55/55/55 95/95/95
f 55/55/55 96/96/96 95/95/95
f 55/55/55 56/56/56 96/96/96
f 56/56/56 97/97/97 96/96/96
f 56/56/56 57/57/57 97/97/97
f 57/57/57 98/98/98 97/97/97
f 57/57/57 58/58/58 98/98/98
f 58/58/58 99/99/99 98/98/98
f 58/58/58 59/59/59 99/99/99
f 59/59/59 100/100/100 99/99/99
f 59/59/59 60/60/60 100/100/100
f 60/60/60 101/101/101 100/100/100
f 60/60/60 61/61/61 101/101/101
f 61/61/61 102/102/102 101/101/101
f 61/61/61 62/62/62 102/102/102
f 62/62/62 103/103/103 102/102/102
f 62/62/62 63/63/63 103/103/103
f 63/63/63 104/104/104 103/103/103
f 63/63/63 64/64/64 104/104/104
f 64/64/64 105/105/105 104/104/104
f 64/64/64 65/65/65 105/105/105
f 65/65/65 106/106/106 105/105/105
f 65/65/65 66/66/66 106/106/106
f 66/66/66 107/107/107 106/106/106
f 66/66/66 67/67/67 107/107/107
f 67/67/67 108/108/108 107/107/107
f 67/67/67 68/68/68 108/108/108
f 68/68/68 109/109/109 108/108/108
f 68/68/68 69/69/69 109/109/109
f 69/69/69 110/110/110 109/109/109
f 69/69/69 70/70/70 110/110/110
f 70/70/70 111/111/111 110/110/110
f 70/70/70 71/71/71 111/111/111
f 71/71/71 112/112/112 111/111/111
f 71/71/71 72/72/72 112/112/112
f 72/72/72 113/113/113 112/112/112
f 72/72/72 73/73/73 113/113/113
f 73/73/73 114/114/114 113/113/113
f 73/73/73 74/74/74 114/114/114
f 74/74/74 115/115/115 114/114/114
f 74/74/74 75/75/75 115/115/115
f 75/75/75 116/116/116 115/115/115
f 75/75/75 76/76/76 116/116/116
f 76/76/76 117/117/117 116/116/116
f 76/76/76 77/77/77 117/117/117
f 77/77/77 118/118/118 117/117/117
f 77/77/77 78/78/78 118/118/118
f 78/78/78 119/119/119 118/118/118
f 78/78/78 79/79/79 119/119/119
f 79/79/79 120/120/120 119/119/119
f 79/79/79 80/80/80 120/120/120
f 80/80/80 121/121/121 120/120/120
f 80/80/80 81/81/81 121/121/121
f 81/81/81 122/122/122 121/121/121
f 81/81/81 82/82/82 122/122/122
f 82/82/82 123/123/123 122/122/122
f 83/83/83 84/84/84 124/124/124
f 84/84/84 125/125/125 124/124/124
f 84/84/84 85/85/85 125/125/125
f 85/85/85 126/126/126 125/125/125
f 85/85/85 86/86/86 126/126/126
f 86/86/86 127/127/127 126/126/126
f 86/86/86 87/87/87 127/127/127
f 87/87/87 128/128/128 127/127/127
f 87/87/87 88/88/88 128/128/128
f 88/88/88 129/129/129 128/128/128
f 88/88/88 89/89/89 129/129/129
f 89/89/89 130/130/130 129/129/129
f 89/89/89 90/90/90 130/130/130
f 90/90/90 131/131/131 130/130/130
f 90/90/90 91/91/91 131/131/131
f 91/91/91 132/132/132 131/131/131
f 91/91/91 92/92/92 132/132/132
f 92/92/92 133/133/133 132/132/132
f 92/92/92 93/93/93 133/133/133
f 93/93/93 134/134/134 133/133/133
f 93/93/93 94/94/94 134/134/134
f 94/94/94 135/135/135 134/134/134
f 94/94/94 95/95/95 135/135/135
f 95/95/95 136/136/136 135/135/135
f 95/95/95 96/96/96 136/136/136
f 96/96/96 137/137/137 136/136/136
f 96/96/96 97/97/97 137/137/137
f 97/97/97 138/138/138 137/137/137
f 97/97/97 98/98/98 138/138/138
f 98/98/98 139/139/139 138/138/138
f 98/98/98 99/99/99 139/139/139
f 99/99/99 140/140/140 139/139/139
f 99/99/99 100/100/100 140/140/140
f 100/100/100 141/141/141 140/140/140
f 100/100/100 101/101/101 141/141/141
f 101/101/101 142/142/142 141/141/141
f 101/101/101 102/102/102 142/142/142
f 102/102/102 143/143/143 142/142/142
f 102/102/102 103/103/103 143/143/143
f 103/103/103 144/144/144 143/143/143
f 103/103/103 104/104/104 144/144/144
f 104/104/104 145/145/145 144/144/144
f 104/104/104 105/105/105 145/145/145
f 105/105/105 146/146/146 145/145/145
f 105/105/105 106/106/106 146/146/146
f 106/106/106 147/147/147 146/146/146
f 106/106/106 107/107/107 147/147/147
f 107/107/107 148/148/148 147/147/147
f 107/107/107 108/108/108 148/148/148
f 108/108/108 149/149/149 148/148/148
f 108/108/108 109/109/109 149/149/149
f 109/109/109 150/150/150 149/149/149
f 109/109/109 110/110/110 150/150/150
f 110/110/110 151/151/151 150/150/150
f 110/110/110 111/111/111 151/151/151
f 111/111/111 152/152/152 151/151/151
f 111/111/111 112/112/112 152/152/152
f 112/112/112 153/153/153 152/152/152
f 112/112/112 113/113/113 153/153/153
f 113/113/113 154/154/154 153/153/153
f 113/113/113 114/114/114 154/154/154
f 114/114/114 155/155/155 154/154/154
f 114/114/114 115/115/115 155/155/155
f 115/115/115 156/156/156 155/155/155
f 115/115/115 116/116/116 156/156/156
f 116/116/116 157/157/157 156/156/156
f 116/116/116 117/117/117 157/157/157
f 117/117/117 158/158/158 157/157/157
f 117/117/117 118/118/118 158/158/158
f 118/118/118 159/159/159 158/158/158
f 118/118/118 119/119/119 159/159/159
f 119/119/119 160/160/160 159/159/159
f 119/119/119 120/120/120 160/160/160
f 120/120/120 161/161/161 160/160/160
f 120/120/120 121/121/121 161/161/161
f 121/121/121 162/162/162 161/161/161
f 121/121/121 122/122/122 162/162/162
f 122/122/122 163/163/163 162/162/162
f 122/122/122 123/123/123 163/163/163
f 123/123/123 164/164/164 163/163/163
f 124/124/124 125/125/125 165/165/165
f 125/125/125 166/166/166 165/165/165
f 125/125/125 126/126/126 166/166/166
f 126/126/126 167/167/167 166/166/166
f 126/126/126 127/127/127 167/167/167
f 127/127/127 168/168/168 167/167/167
f 127/127/127 128/128/128 168/168/168
f 128/128/128 169/169/169 168/168/168
f 128/128/128 129/129/129 169/169/169
f 129/129/129 170/170/170 169/169/169
f 129/129/129 130/130/130 170/170/170
f 130/130/130 171/171/171 170/170/170
f 130/130/130 131/131/131 171/171/171
f 131/131/131 172/172/172 171/171/171
f 131/131/131 132/132/132 172/172/172
f 132/132/132 173/173/173 172/172/172
f 132/132/132 133/133/133 173/173/173
f 133/133/133 174/174/174 173/173/173
f 133/133/133 134/134/134 174/174/174
f 134/134/134 175/175/175 174/174/174
f 134/134/134 135/135/135 175/175/175
f 135/135/135 176/176/176 175/175/175
f 135/135/135 136/136/136 176/176/176
f 136/136/136 177/177/177 176/176/176
f 136/136/136 137/137/137 177/177/177
f 137/137/137 178/178/178 177/177/177
f 137/137/137 138/138/138 178/178/178
f 138/138/138 179/179/179 178/178/178
f 138/138/138 139/139/139 179/179/179
f 139/139/139 180/180/180 179/179/179
f 139/139/139 140/140/140 180/180/180
f 140/140/140 181/181/181 180/180/180
f 140/140/140 141/141/141 181/181/181
f 141/141/141 182/182/182 181/181/181
f 141/141/141 142/142/142 182/182/182
f 142/142/142 183/183/183 182/182/182
f 142/142/142 143/143/143 183/183/183
f 143/143/143 184/184/184 183/183/183
f 143/143/143 144/144/144 184/184/184
f 144/144/144 185/185/185 184/184/184
f 144/144/144 145/145/145 185/185/185
f 145/145/145 186/186/186 185/185/185
f 145/145/145 146/146/146 186/186/186
f 146/146/146 187/187/187 186/186/186
f 146/146/146 147/147/147 187/187/187
f 147/147/147 188/188/188 187/187/187
f 147/147/147 148/148/148 188/188/188
f 148/148/148 189/189/189 188/188/188
f 148/148/148 149/149/149 189/189/189
f 149/149/149 190/190/190 189/189/189
f 149/149/149 150/150/150 190/190/190
f 150/150/150 191/191/191 190/190/190
f 150/150/150 151/151/151 191/191/191
f 151/151/151 192/192/192 191/191/191
f 151/151/151 152/152/152 192/192/192
f 152/152/152 193/193/193 192/192/192
f 152/152/152 153/153/153 193/193/193
f 153/153/153 194/194/194 193/193/193
f 153/153/153 154/154/154 194/194/194
f 154/154/154 195/195/195 194/194/194
f 154/154/154 155/155/155 195/195/195
f 155/155/155 196/196/196 195/195/195
f 155/155/155 156/156/156 196/196/196
f 156/156/156 197/197/197 196/196/196
f 156/156/156 157/157/157 197/197/197
f 157/157/157 198/198/198 197/197/197
f 157/157/157 158/158/158 198/198/198
f 158/158/158 199/199/199 198/198/198
f 158/158/158 159/159/159 199/199/199
f 159/159/159 200/200/200 199/199/199
f 159/159/159 160/160/160 200/200/200
f 160/160/160 201/201/201 200/200/200
f 160/160/160 161/161/161 201/201/201
f 161/161/161 202/202/202 201/201/201
f 161/161/161 162/162/162 202/202/202
f 162/162/162 203/203/203 202/202/202
f 162/162/162 163/163/163 203/203/203
f 163/163/163 204/204/204 203/203/203
f 163/163/163 164/164/164 204/204/204
f 164/164/164 205/205/205 204/204/204
f 165/165/165 166/166/166 206/206/206
f 166/166/166 207/207/207 206/206/206
f 166/166/166 167/167/167 207/207/207
f 167/167/167 208/208/208 207/207/207
f 167/167/167 168/168/168 208/208/208
f 168/168/168 209/209/209 208/208/208
f 168/168/168 169/169/169 209/209/209
f 169/169/169 210/210/210 209/209/209
f 169/169/169 170/170/170 210/210/210
f 170/170/170 211/211/211 210/210/210
f 170/170/170 171/171/171 211/211/211
f 171/171/171 212/212/212 211/211/211
f 171/171/171 172/172/172 212/212/212
f 172/172/172 213/213/213 212/212/212
f 172/172/172 173/173/173 213/213/213
f 173/173/173 214/214/214 213/213/213
f 173/173/173 174/174/174 214/214/214
f 174/174/174 215/215/215 214/214/214
f 174/174/174 175/175/175 215/215/215
f 175/175/175 216/216/216 215/215/215
f 175/175/175 176/176/176 216/216/216
f 176/176/176 217/217/217 216/216/216
f 176/176/176 177/177/177 217/217/217
f 177/177/177 218/218/218 217/217/217
f 177/177/177 178/178/178 218/218/218
f 178/178/178 219/219/219 218/218/218
f 178/178/178 179/179/179 219/219/219
f 179/179/179 220/220/220 219/219/219
f 179/179/179 180/180/180 220/220/220
f 180/180/180 221/221/221 220/220/220
f 180/180/180 181/181/181 221/221/221
f 181/181/181 222/222/222 221/221/221
f 181/181/181 182/182/182 222/222/222
f 182/182/182 223/223/223 222/222/222
f 182/182/182 183/183/183 223/223/223
f 183/183/183 224/224/224 223/223/223
f 183/183/183 184/184/184 224/224/224
f 184/184/184 225/225/225 224/224/224
f 184/184/184 185/185/185 225/225/225
f 185/185/185 226/226/226 225/225/225
f 185/185/185 186/186/186 226/226/226
f 186/186/186 227/227/227 226/226/226
f 186/186/186 187/187/187 227/227/227
f 187/187/187 228/228/228 227/227/227
f 187/187/187 188/188/188 228/228/228
f 188/188/188 229/229/229 228/228/228
f 188/188/188 189/189/189 229/229/229
f 189/189/189 230/230/230 229/229/229
f 189/189/189 190/190/190 230/230/230
f 190/190/190 231/231/231 230/230/230
f 190/190/190 191/191/191 231/231/231
f 191/191/191 232/232/232 231/231/231
f 191/191/191 192/192/192 232/232/232
f 192/192/192 233/233/233 232/232/232
f 192/192/192 193/193/193 233/233/233
f 193/193/193 234/234/234 233/233/233
f 193/193/193 194/194/194 234/234/234
f 194/194/194 235/235/235 234/234/234
f 194/194/194 195/195/195 235/235/235
f 195/195/195 236/236/236 235/235/235
f 195/195/195 196/196/196 236/236/236
f 196/196/196 237/237/237 236/236/236
f 196/196/196 197/197/197 237/237/237
f 197/197/197 238/238/238 237/237/237
f 197/197/197 198/198/198 238/238/238
f 198/198/198 239/239/239 238/238/238
f 198/198/198 199/199/199 239/239/239
f 199/199/199 240/240/240 239/239/239
f 199/199/199 200/200/200 240/240/240
f 200/200/200 241/241/241 240/240/240
f 200/200/200 201/201/201 241/241/241
f 201/201/201 242/242/242 241/241/241
f 201/201/201 202/202/202 242/242/242
f 202/202/202 243/243/243 242/242/242
f 202/202/202 203/203/203 243/243/243
f 203/203/203 244/244/244 243/243/243
f 203/203/203 204/204/204 244/244/244
f 204/204/204 245/245/245 244/244/244
f 204/204/204 205/205/205 245/245/245
f 205/205/205 246/246/246 245/245/245
f 206/206/206 207/207/207 247/247/247
f 207/207/207 248/248/248 247/247/247
f 207/207/207 208/208/208 248/248/248
f 208/208/208 249/249/249 248/248/248
f 208/208/208 209/209/209 249/249/249
f 209/209/209 250/250/250 249/249/249
f 209/209/209 210/210/210 250/250/250
f 210/210/210 251/251/251 250/250/250
f 210/210/210 211/211/211 251/251/251
f 211/211/211 252/252/252 251/251/251
f 211/211/211 212/212/212 252/252/252
f 212/212/212 253/253/253 252/252/252
f 212/212/212 213/213/213 253/253/253
f 213/213/213 254/254/254 253/253/253
f 213/213/213 214/214/214 254/254/254
f 214/214/214 255/255/255 254/254/254
f 214/214/214 215/215/215 255/255/255
f 215/215/215 256/256/256 255/255/255
f 215/215/215 216/216/216 256/256/256
f 216/216/216 257/257/257 256/256/256
f 216/216/216 217/217/217 257/257/257
f 217/217/217 258/258/258 257/257/257
f 217/217/217 218/218/218 258/258/258
f 218/218/218 259/259/259 258/258/258
f 218/218/218 219/219/219 259/259/259
f 219/219/219 260/260/260 259/259/259
f 219/219/219 220/220/220 260/260/260
f 220/220/220 261/261/261 260/260/260
f 220/220/220 221/221/221 261/261/261
f 221/221/221 262/262/262 261/261/261
f 221/221/221 222/222/222 262/262/262
f 222/222/222 263/263/263 262/262/262
f 222/222/222 223/223/223 263/263/263
f 223/223/223 264/264/264 263/263/263
f 223/223/223 224/224/224 264/264/264
f 224/224/224 265/265/265 264/264/264
f 224/224/224 225/225/225 265/265/265
f 225/225/225 266/266/266 265/265/265
f 225/225/225 226/226/226 266/266/266
f 226/226/226 267/267/267 266/266/266
f 226/226/226 227/227/227 267/267/267
f 227/227/227 268/268/268 267/267/267
f 227/227/227 228/228/228 268/268/268
f 228/228/228 269/269/269 268/268/268
f 228/228/228 229/229/229 269/269/269
f 229/229/229 270/270/270 269/269/269
f 229/229/229 230/230/230 270/270/270
f 230/230/230 271/271/271 270/270/270
f 230/230/230 231/231/231 271/271/271
f 231/231/231 272/272/272 271/271/271
f 231/231/231 232/232/232 272/272/272
f 232/232/232 273/273/273 272/272/272
f 232/232/232 233/233/233 273/273/273
f 233/233/233 274/274/274 273/273/273
f 233/233/233 234/234/234 274/274/274
f 234/234/234 275/275/275 274/274/274
f 234/234/234 235/235/235 275/275/275
f 235/235/235 276/276/276 275/275/275
f 235/235/235 236/236/236 276/276/276
f 236/236/236 277/277/277 276/276/276
f 236/236/236 237/237/237 277/277/277
f 237/237/237 278/278/278 277/277/277
f 237/237/237 238/238/238 278/278/278
f 238/238/238 279/279/279 278/278/278
f 238/238/238 239/239/239 279/279/279
f 239/239/239 280/280/280 279/279/279
f 239/239/239 240/240/240 280/280/280
f 240/240/240 281/281/281 280/280/280
f 240/240/240 241/241/241 281/281/281
f 241/241/241 282/282/282 281/281/281
f 241/241/241 242/242/242 282/282/282
f 242/242/242 283/283/283 282/282/282
f 242/242/242 243/243/243 283/283/283
f 243/243/243 284/284/284 283/283/283
f 243/243/243 244/244/244 284/284/284
f 244/244/244 285/285/285 284/284/284
f 244/244/244 245/245/245 285/285/285
f 245/245/245 286/286/286 285/285/285
f 245/245/245 246/246/246 286/286/286
f 246/246/246 287/287/287 286/286/286
f 247/247/247 248/248/248 288/288/288
f 248/248/248 289/289/289 288/288/288
f 248/248/248 249/249/249 289/289/289
f 249/249/249 290/290/290 289/289/289
f 249/249/249 250/250/250 290/290/290
f 250/250/250 291/291/291 290/290/290
f 250/250/250 251/251/251 291/291/291
f 251/251/251 292/292/292 291/291/291
f 251/251/251 252/252/252 292/292/292
f 252/252/252 293/293/293 292/292/292
f 252/252/252 253/253/253 293/293/293
f 253/253/253 294/294/294 293/293/293
f 253/253/253 254/254/254 294/294/294
f 254/254/254 295/295/295 294/294/294
f 254/254/254 255/255/255 295/295/295
f 255/255/255 296/296/296 295/295/295
f 255/255/255 256/256/256 296/296/296
f 256/256/256 297/297/297 296/296/296
f 256/256/256 257/257/257 297/297/297
f 257/257/257 298/298/298 297/297/297
f 257/257/257 258/258/258 298/298/298
f 258/258/258 299/299/299 298/298/298
f 258/258/258 259/259/259 299/299/299
f 259/259/259 300/300/300 299/299/299
f 259/259/259 260/260/260 300/300/300
f 260/260/260 301/301/301 300/300/300
f 260/260/260 261/261/261 301/301/301
f 261/261/261 302/302/302 301/301/301
f 261/261/261 262/262/262 302/302/302
f 262/262/262 303/303/303 302/302/302
f 262/262/262 263/263/263 303/303/303
f 263/263/263 304/304/304 303/303/303
f 263/263/263 264/264/264 304/304/304
f 264/264/264 305/305/305 304/304/304
f 264/264/264 265/265/265 305/305/305
f 265/265/265 306/306/306 305/305/305
f 265/265/265 266/266/266 306/306/306
f 266/266/266 307/307/307 306/306/306
f 266/266/266 267/267/267 307/307/307
f 267/267/267 308/308/308 307/307/307
f 267/267/267 268/268/268 308/308/308
f 268/268/268 309/309/309 308/308/308
f 268/268/268 269/269/269 309/309/309
f 269/269/269 310/310/310 309/309/309
f 269/269/269 270/270/270 310/310/310
f 270/270/270 311/311/311 310/310/310
f 270/270/270 271/271/271 311/311/311
f 271/271/271 312/312/312 311/311/311
f 271/271/271 272/272/272 312/312/312
f 272/272/272 313/313/313 312/312/312
f 272/272/272 273/273/273 313/313/313
f 273/273/273 314/314/314 313/313/313
f 273/273/273 274/274/274 314/314/314
f 274/274/274 315/315/315 314/314/314
f 274/274/274 275/275/275 315/315/315
f 275/275/275 316/316/316 315/315/315
f 275/275/275 276/276/276 316/316/316
f 276/276/276 317/317/317 316/316/316
f 276/276/276 277/277/277 317/317/317
f 277/277/277 318/318/318 317/317/317
f 277/277/277 278/278/278 318/318/318
f 278/278/278 319/319/319 318/318/318
f 278/278/278 279/279/279 319/319/319
f 279/279/279 320/320/320 319/319/319
f 279/279/279 280/280/280 320/320/320
f 280/280/280 321/321/321 320/320/320
f 280/280/280 281/281/281 321/321/321
f 281/281/281 322/322/322 321/321/321
f 281/281/281 282/282/282 322/322/322
f 282/282/282 323/323/323 322/322/322
f 282/282/282 283/283/283 323/323/323
f 283/283/283 324/324/324 323/323/323
f 283/283/283 284/284/284 324/324/324
f 284/284/284 325/325/325 324/324/324
f 284/284/284 285/285/285 325/325/325
f 285/285/285 326/326/326 325/325/325
f 285/285/285 286/286/286 326/326/326
f 286/286/286 327/327/327 326/326/326
f 286/286/286 287/287/287 327/327/327
f 287/287/287 328/328/328 327/327/327
f 288/288/288 289/289/289 329/329/329
f 289/289/289 330/330/330 329/329/329
f 289/289/289 290/290/290 330/330/330
f 290/290/290 331/331/331 330/330/330
f 290/290/290 291/291/291 331/331/331
f 291/291/291 332/332/332 331/331/331
f 291/291/291 292/292/292 332/332/332
f 292/292/292 333/333/333 332/332/332
f 292/292/292 293/293/293 333/333/333
f 293/293/293 334/334/334 333/333/333
f 293/293/293 294/294/294 334/334/334
f 294/294/294 335/335/335 334/334/334
f 294/294/294 295/295/295 335/335/335
f 295/295/295 336/336/336 335/335/335
f 295/295/295 296/296/296 336/336/336
f 296/296/296 337/337/337 336/336/336
f 296/296/296 297/297/297 337/337/337
f 297/297/297 338/338/338 337/337/337
f 297/297/297 298/298/298 338/338/338
f 298/298/298 339/339/339 338/338/338
f 298/298/298 299/299/299 339/339/339
f 299/299/299 340/340/340 339/339/339
f 299/299/299 300/300/300 340/340/340
f 300/300/300 341/341/341 340/340/340
f 300/300/300 301/301/301 341/341/341
f 301/301/301 342/342/342 341/341/341
f 301/301/301 302/302/302 342/342/342
f 302/302/302 343/343/343 342/342/342
f 302/302/302 303/303/303 343/343/343
f 303/303/303 344/344/344 343/343/343
f 303/303/303 304/304/304 344/344/344
f 304/304/304 345/345/345 344/344/344
f 304/304/304 305/305/305 345/345/345
f 305/305/305 346/346/346 345/345/345
f 305/305/305 306/306/306 346/346/346
f 306/306/306 347/347/347 346/346/346
f 306/306/306 307/307/307 347/347/347
f 307/307/307 348/348/348 347/347/347
f 307/307/307 308/308/308 348/348/348
f 308/308/308 349/349/349 348/348/348
f 308/308/308 309/309/309 349/349/349
f 309/309/309 350/350/350 349/349/349
f 309/309/309 310/310/310 350/350/350
f 310/310/310 351/351/351 350/350/350
f 310/310/310 311/311/311 351/351/351
f 311/311/311 352/352/352 351/351/351
f 311/311/311 312/312/312 352/352/352
f 312/312/312 353/353/353 352/352/352
f 312/312/312 313/313/313 353/353/353
f 313/313/313 354/354/354 353/353/353
f 313/313/313 314/314/314 354/354/354
f 314/314/314 355/355/355 354/354/354
f 314/314/314 315/315/315 355/355/355
f 315/315/315 356/356/356 355/355/355
f 315/315/315 316/316/316 356/356/356
f 316/316/316 357/357/357 356/356/356
f 316/316/316 317/317/317 357/357/357
f 317/317/317 358/358/358 357/357/357
f 317/317/317 318/318/318 358/358/358
f 318/318/318 359/359/359 358/358/358
f 318/318/318 319/319/319 359/359/359
f 319/319/319 360/360/360 359/359/359
f 319/319/319 320/320/320 360/360/360
f 320/320/320 361/361/361 360/360/360
f 320/320/320 321/321/321 361/361/361
f 321/321/321 362/362/362 361/361/361
f 321/321/321 322/322/322 362/362/362
f 322/322/322 363/363/363 362/362/362
f 322/322/322 323/323/323 363/363/363
f 323/323/323 364/364/364 363/363/363
f 323/323/323 324/324/324 364/364/364
f 324/324/324 365/365/365 364/364/364
f 324/324/324 325/325/325 365/365/365
f 325/325/325 366/366/366 365/365/365
f 325/325/325 326/326/326 366/366/366
f 326/326/326 367/367/367 366/366/366
f 326/326/326 327/327/327 367/367/367
f 327/327/327 368/368/368 367/367/367
f 327/327/327 328/328/328 368/368/368
f 328/328/328 369/369/369 368/368/368
f 329/329/329 330/330/330 370/370/370
f 330/330/330 371/371/371 370/370/370
f 330/330/330 331/331/331 371/371/371
f 331/331/331 372/372/372 371/371/371
f 331/331/331 332/332/332 372/372/372
f 332/332/332 373/373/373 372/372/372
f 332/332/332 333/333/333 373/373/373
f 333/333/333 374/374/374 373/373/373
f 333/333/333 334/334/334 374/374/374
f 334/334/334 375/375/375 374/374/374
f 334/334/334 335/335/335 375/375/375
f 335/335/335 376/376/376 375/375/375
f 335/335/335 336/336/336 376/376/376
f 336/336/336 377/377/377 376/376/376
f 336/336/336 337/337/337 377/377/377
f 337/337/337 378/378/378 377/377/377
f 337/337/337 338/338/338 378/378/378
f 338/338/338 379/379/379 378/378/378
f 338/338/338 339/339/339 379/379/379
f 339/339/339 380/380/380 379/379/379
f 339/339/339 340/340/340 380/380/380
f 340/340/340 381/381/381 380/380/380
f 340/340/340 341/341/341 381/381/381
f 341/341/341 382/382/382 381/381/381
f 341/341/341 342/342/342 382/382/382
f 342/342/342 383/383/383 382/382/382
f 342/342/342 343/343/343 383/383/383
f 343/343/343 384/384/384 383/383/383
f 343/343/343 344/344/344 384/384/384
f 344/344/344 385/385/385 384/384/384
f 344/344/344 345/345/345 385/385/385
f 345/345/345 386/386/386 385/385/385
f 345/345/345 346/346/346 386/386/386
f 346/346/346 387/387/387 386/386/386
f 346/346/346 347/347/347 387/387/387
f 347/347/347 388/388/388 387/387/387
f 347/347/347 348/348/348 388/388/388
f 348/348/348 389/389/389 388/388/388
f 348/348/348 349/349/349 389/389/389
f 349/349/349 390/390/390 389/389/389
f 349/349/349 350/350/350 390/390/390
f 350/350/350 391/391/391 390/390/390
f 350/350/350 351/351/351 391/391/391
f 351/351/351 392/392/392 391/391/391
f 351/351/351 352/352/352 392/392/392
f 352/352/352 393/393/393 392/392/392
f 352/352/352 353/353/353 393/393/393
f 353/353/353 394/394/394 393/393/393
f 353/353/353 354/354/354 394/394/394
f 354/354/354 395/395/395 394/394/394
f 354/354/354 355/355/355 395/395/395
f 355/355/355 396/396/396 395/395/395
f 355/355/355 356/356/356 396/396/396
f 356/356/356 397/397/397 396/396/396
f 356/356/356 357/357/357 397/397/397
f 357/357/357 398/398/398 397/397/397
f 357/357/357 358/358/358 398/398/398
f 358/358/358 399/399/399 398/398/398
f 358/358/358 359/359/359 399/399/399
f 359/359/359 400/400/400 399/399/399
f 359/359/359 360/360/360 400/400/400
f 360/360/360 401/401/401 400/400/400
f 360/360/360 361/361/361 401/401/401
f 361/361/361 402/402/402 401/401/401
f 361/361/361 362/362/362 402/402/402
f 362/362/362 403/403/403 402/402/402
f 362/362/362 363/363/363 403/403/403
f 363/363/363 404/404/404 403/403/403
f 363/363/363 364/364/364 404/404/404
f 364/364/364 405/405/405 404/404/404
f 364/364/364 365/365/365 405/405/405
f 365/365/365 406/406/406 405/405/405
f 365/365/365 366/366/366 406/406/406
f 366/366/366 407/407/407 406/406/406
f 366/366/366 367/367/367 407/407/407
f 367/367/367 408/408/408 407/407/407
f 367/367/367 368/368/368 408/408/408
f 368/368/368 409/409/409 408/408/408
f 368/368/368 369/369/369 409/409/409
f 369/369/369 410/410/410 409/409/409
f 370/370/370 371/371/371 411/411/411
f 371/371/371 412/412/412 411/411/411
f 371/371/371 372/372/372 412/412/412
f 372/372/372 413/413/413 412/412/412
f 372/372/372 373/373/373 413/413/413
f 373/373/373 414/414/414 413/413/413
f 373/373/373 374/374/374 414/414/414
f 374/374/374 415/415/415 414/414/414
f 374/374/374 375/375/375 415/415/415
f 375/375/375 416/416/416 415/415/415
f 375/375/375 376/376/376 416/416/416
f 376/376/376 417/417/417 416/416/416
f 376/376/376 377/377/377 417/417/417
f 377/377/377 418/418/418 417/417/417
f 377/377/377 378/378/378 418/418/418
f 378/378/378 419/419/419 418/418/418
f 378/378/378 379/379/379 419/419/419
f 379/379/379 420/420/420 419/419/419
f 379/379/379 380/380/380 420/420/420
f 380/380/380 421/421/421 420/420/420
f 380/380/380 381/381/381 421/421/421
f 381/381/381 422/422/422 421/421/421
f 381/381/381 382/382/382 422/422/422
f 382/382/382 423/423/423 422/422/422
f 382/382/382 383/383/383 423/423/423
f 383/383/383 424/424/424 423/423/423
f 383/383/383 384/384/384 424/424/424
f 384/384/384 425/425/425 424/424/424
f 384/384/384 385/385/385 425/425/425
f 385/385/385 426/426/426 425/425/425
f 385/385/385 386/386/386 426/426/426
f 386/386/386 427/427/427 426/426/426
f 386/386/386 387/387/387 427/427/427
f 387/387/387 428/428/428 427/427/427
f 387/387/387 388/388/388 428/428/428
f 388/388/388 429/429/429 428/428/428
f 388/388/388 389/389/389 429/429/429
f 389/389/389 430/430/430 429/429/429
f 389/389/389 390/390/390 430/430/430
f 390/390/390 431/431/431 430/430/430
f 390/390/390 391/391/391 431/431/431
f 391/391/391 432/432/432 431/431/431
f 391/391/391 392/392/392 432/432/432
f 392/392/392 433/433/433 432/432/432
f 392/392/392 393/393/393 433/433/433
f 393/393/393 434/434/434 433/433/433
f 393/393/393 394/394/394 434/434/434
f 394/394/394 435/435/435 434/434/434
f 394/394/394 395/395/395 435/435/435
f 395/395/395 436/436/436 435/435/435
f 395/395/395 396/396/396 436/436/436
f 396/396/396 437/437/437 436/436/436
f 396/396/396 397/397/397 437/437/437
f 397/397/397 438/438/438 437/437/437
f 397/397/397 398/398/398 438/438/438
f 398/398/398 439/439/439 438/438/438
f 398/398/398 399/399/399 439/439/439
f 399/399/399 440/440/440 439/439/439
f 399/399/399 400/400/400 440/440/440
f 400/400/400 441/441/441 440/440/440
f 400/400/400 401/401/401 441/441/441
f 401/401/401 442/442/442 441/441/441
f 401/401/401 402/402/402 442/442/442
f 402/402/402 443/443/443 442/442/442
f 402/402/402 403/403/403 443/443/443
f 403/403/403 444/444/444 443/443/443
f 403/403/403 404/404/404 444/444/444
f 404/404/404 445/445/445 444/444/444
f 404/404/404 405/405/405 445/445/445
f 405/405/405 446/446/446 445/445/445
f 405/405/405 406/406/406 446/446/446
f 406/406/406 447/447/447 446/446/446
f 406/406/406 407/407/407 447/447/447
f 407/407/407 448/448/448 447/447/447
f 407/407/407 408/408/408 448/448/448
f 408/408/408 449/449/449 448/448/448
f 408/408/408 409/409/409 449/449/449
f 409/409/409 450/450/450 449/449/449
f 409/409/409 410/410/410 450/450/450
f 410/410/410 451/451/451 450/450/450
f 411/411/411 412/412/412 452/452/452
f 412/412/412 453/453/453 452/452/452
f 412/412/412 413/413/413 453/453/453
f 413/413/413 454/454/454 453/453/453
f 413/413/413 414/414/414 454/454/454
f 414/414/414 455/455/455 454/454/454
f 414/414/414 415/415/415 455/455/455
f 415/415/415 456/456/456 455/455/455
f 415/415/415 416/416/416 456/456/456
f 416/416/416 457/457/457 456/456/456
f 416/416/416 417/417/417 457/457/457
f 417/417/417 458/458/458 457/457/457
f 417/417/417 418/418/418 458/458/458
f 418/418/418 459/459/459 458/458/458
f 418/418/418 419/419/419 459/459/459
f 419/419/419 460/460/460 459/459/459
f 419/419/419 420/420/420 460/460/460
f 420/420/420 461/461/461 460/460/460
f 420/420/420 421/421/421 461/461/461
f 421/421/421 462/462/462 461/461/461
f 421/421/421 422/422/422 462/462/462
f 422/422/422 463/463/463 462/462/462
f 422/422/422 423/423/423 463/463/463
f 423/423/423 464/464/464 463/463/463
f 423/423/423 424/424/424 464/464/464
f 424/424/424 465/465/465 464/464/464
f 424/424/424 425/425/425 465/465/465
f 425/425/425 466/466/466 465/465/465
f 425/425/425 426/426/426 466/466/466
f 426/426/426 467/467/467 466/466/466
f 426/426/426 427/427/427 467/467/467
f 427/427/427 468/468/468 467/467/467
f 427/427/427 428/428/428 468/468/468
f 428/428/428 469/469/469 468/468/468
f 428/428/428 429/429/429 469/469/469
f 429/429/429 470/470/470 469/469/469
f 429/429/429 430/430/430 470/470/470
f 430/430/430 471/471/471 470/470/470
f 430/430/430 431/431/431 471/471/471
f 431/431/431 472/472/472 471/471/471
f 431/431/431 432/432/432 472/472/472
f 432/432/432 473/473/473 472/472/472
f 432/432/432 433/433/433 473/473/473
f 433/433/433 474/474/474 473/473/473
f 433/433/433 434/434/434 474/474/474
f 434/434/434 475/475/475 474/474/474
f 434/434/434 435/435/435 475/475/475
f 435/435/435 476/476/476 475/475/475
f 435/435/435 436/436/436 476/476/476
f 436/436/436 477/477/477 476/476/476
f 436/436/436 437/437/437 477/477/477
f 437/437/437 478/478/478 477/477/477
f 437/437/437 438/438/438 478/478/478
f 438/438/438 479/479/479 478/478/478
f 438/438/438 439/439/439 479/479/479
f 439/439/439 480/480/480 479/479/479
f 439/439/439 440/440/440 480/480/480
f 440/440/440 481/481/481 480/480/480
f 440/440/440 441/441/441 481/481/481
f 441/441/441 482/482/482 481/481/481
f 441/441/441 442/442/442 482/482/482
f 442/442/442 483/483/483 482/482/482
f 442/442/442 443/443/443 483/483/483
f 443/443/443 484/484/484 483/483/483
f 443/443/443 444/444/444 484/484/484
f 444/444/444 485/485/485 484/484/484
f 444/444/444 445/445/445 485/485/485
f 445/445/445 486/486/486 485/485/485
f 445/445/445 446/446/446 486/486/486
f 446/446/446 487/487/487 486/486/486
f 446/446/446 447/447/447 487/487/487
f 447/447/447 488/488/488 487/487/487
f 447/447/447 448/448/448 488/488/488
f 448/448/448 489/489/489 488/488/488
f 448/448/448 449/449/449 489/489/489
f 449/449/449 490/490/490 489/489/489
f 449/449/449 450/450/450 490/490/490
f 450/450/450 491/491/491 490/490/490
f 450/450/450 451/451/451 491/491/491
f 451/451/451 492/492/492 491/491/491
f 452/452/452 453/453/453 493/493/493
f 453/453/453 494/494/494 493/493/493
f 453/453/453 454/454/454 494/494/494
f 454/454/454 495/495/495 494/494/494
f 454/454/454 455/455/455 495/495/495
f 455/455/455 496/496/496 495/495/495
f 455/455/455 456/456/456 496/496/496
f 456/456/456 497/497/497 496/496/496
f 456/456/456 457/457/457 497/497/497
f 457/457/457 498/498/498 497/497/497
f 457/457/457 458/458/458 498/498/498
f 458/458/458 499/499/499 498/498/498
f 458/458/458 459/459/459 499/499/499
f 459/459/459 500/500/500 499/499/499
f 459/459/459 460/460/460 500/500/500
f 460/460/460 501/501/501 500/500/500
f 460/460/460 461/461/461 501/501/501
f 461/461/461 502/502/502 501/501/501
f 461/461/461 462/462/462 502/502/502
f 462/462/462 503/503/503 502/502/502
f 462/462/462 463/463/463 503/503/503
f 463/463/463 504/504/504 503/503/503
f 463/463/463 464/464/464 504/504/504
f 464/464/464 505/505/505 504/504/504
f 464/464/464 465/465/465 505/505/505
f 465/465/465 506/506/506 505/505/505
f 465/465/465 466/466/466 506/506/506
f 466/466/466 507/507/507 506/506/506
f 466/466/466 467/467/467 507/507/507
f 467/467/467 508/508/508 507/507/507
f 467/467/467 468/468/468 508/508/508
f 468/468/468 509/509/509 508/508/508
f 468/468/468 469/469/469 509/509/509
f 469/469/469 510/510/510 509/509/509
f 469/469/469 470/470/470 510/510/510
f 470/470/470 511/511/511 510/510/510
f 470/470/470 471/471/471 511/511/511
f 471/471/471 512/512/512 511/511/511
f 471/471/471 472/472/472 512/512/512
f 472/472/472 513/513/513 512/512/512
f 472/472/472 473/473/473 513/513/513
f 473/473/473 514/514/514 513/513/513
f 473/473/473 474/474/474 514/514/514
f 474/474/474 515/515/515 514/514/514
f 474/474/474 475/475/475 515/515/515
f 475/475/475 516/516/516 515/515/515
f 475/475/475 476/476/476 516/516/516
f 476/476/476 517/517/517 516/516/516
f 476/476/476 477/477/477 517/517/517
f 477/477/477 518/518/518 517/517/517
f 477/477/477 478/478/478 518/518/518
f 478/478/478 519/519/519 518/518/518
f 478/478/478 479/479/479 519/519/519
f 479/479/479 520/520/520 519/519/519
f 479/479/479 480/480/480 520/520/520
f 480/480/480 521/521/521 520/520/520
f 480/480/480 481/481/481 521/521/521
f 481/481/481 522/522/522 521/521/521
f 481/481/481 482/482/482 522/522/522
f 482/482/482 523/523/523 522/522/522
f 482/482/482 483/483/483 523/523/523
f 483/483/483 524/524/524 523/523/523
f 483/483/483 484/484/484 524/524/524
f 484/484/484 525/525/525 524/524/524
f 484/484/484 485/485/485 525/525/525
f 485/485/485 526/526/526 525/525/525
f 485/485/485 486/486/486 526/526/526
f 486/486/486 527/527/527 526/526/526
f 486/486/486 487/487/487 527/527/527
f 487/487/487 528/528/528 527/527/527
f 487/487/487 488/488/488 528/528/528
f 488/488/488 529/529/529 528/528/528
f 488/488/488 489/489/489 529/529/529
f 489/489/489 530/530/530 529/529/529
f 489/489/489 490/490/490 530/530/530
f 490/490/490 531/531/531 530/530/530
f 490/490/490 491/491/491 531/531/531
f 491/491/491 532/532/532 531/531/531
f 491/491/491 492/492/492 532/532/532
f 492/492/492 533/533/533 532/532/532
